<?xml version="1.0" standalone="no"?>
<!DOCTYPE svg PUBLIC "-//W3C//DTD SVG 20010904//EN"
 "http://www.w3.org/TR/2001/REC-SVG-20010904/DTD/svg10.dtd">
<svg version="1.0" xmlns="http://www.w3.org/2000/svg"
 width="600.000000pt" height="600.000000pt" viewBox="0 0 600.000000 600.000000"
 preserveAspectRatio="xMidYMid meet">
<metadata>
Created by potrace 1.11, written by Peter Selinger 2001-2013
</metadata>
<g transform="translate(0.000000,600.000000) scale(0.100000,-0.100000)"
fill="#000000" stroke="none">
<path d="M0 3000 l0 -3000 132 0 132 0 -40 34 c-22 19 -52 58 -68 87 l-29 54
49 -49 c78 -77 156 -110 284 -120 l75 -6 38 71 c22 39 45 73 53 76 27 10 14
22 -43 38 -87 25 -149 63 -208 127 -72 78 -95 148 -95 296 l0 105 24 -22 c33
-31 69 -38 140 -29 34 5 93 8 133 8 40 -1 74 4 78 9 9 15 58 14 77 -1 9 -8 22
-51 32 -108 19 -103 44 -171 79 -208 20 -22 87 -62 103 -62 4 0 -18 27 -49 59
-63 66 -70 79 -98 200 -27 118 -45 143 -116 165 -83 26 -173 72 -211 109 -41
40 -74 108 -70 144 3 24 8 28 39 31 52 4 318 -42 424 -74 117 -35 210 -37 278
-5 79 39 76 51 -7 26 -76 -23 -154 -19 -258 15 -75 23 -194 50 -229 50 -17 0
-17 36 2 96 27 87 21 130 -7 55 l-21 -54 -9 34 c-7 29 -9 23 -12 -45 l-3 -78
-32 6 c-18 4 -64 9 -103 13 l-72 6 -12 58 c-12 55 -11 60 14 102 14 25 40 57
58 72 28 24 38 26 79 21 76 -10 149 -35 149 -51 0 -16 18 -19 37 -7 19 12 -9
164 -80 432 -58 222 -70 353 -43 492 27 142 82 249 120 235 33 -13 53 -103 91
-425 26 -222 57 -393 99 -547 l25 -90 -30 -28 c-40 -37 -32 -43 23 -16 40 19
47 28 70 88 38 96 45 126 88 383 42 250 72 371 120 471 47 100 123 177 175
177 25 0 19 -89 -21 -302 -63 -341 -73 -414 -85 -630 l-12 -213 34 -170 c29
-148 33 -190 33 -320 -1 -196 -14 -293 -78 -562 l-53 -223 311 0 311 0 29 86
c81 238 245 413 544 583 83 46 82 46 107 28 17 -13 17 -16 -12 -58 -39 -56
-68 -113 -54 -104 6 3 30 34 53 68 22 34 42 64 44 66 2 2 23 -5 48 -15 31 -13
44 -24 42 -34 -3 -8 -14 -58 -26 -110 -44 -192 -93 -307 -185 -428 -30 -40
-55 -75 -55 -78 0 -2 53 -4 119 -4 l118 0 6 212 c4 135 13 250 24 313 l18 100
56 3 56 3 12 -123 c6 -68 15 -137 20 -153 14 -46 14 92 0 194 -6 45 -10 84 -8
85 2 2 14 7 27 10 15 5 22 3 22 -6 0 -8 7 -23 16 -34 14 -18 15 -18 8 6 -4 14
-9 31 -11 37 -10 25 22 12 38 -15 108 -184 137 -239 164 -307 30 -75 32 -86
27 -177 -5 -115 1 -148 27 -148 17 0 19 7 15 63 -3 58 -3 60 7 22 5 -22 12
-50 15 -63 l4 -22 1210 0 c1142 0 1209 1 1214 18 31 105 32 546 2 717 -25 140
-57 266 -79 310 -31 65 -341 363 -455 439 -95 63 -402 241 -493 286 -44 21
-47 26 -53 69 -9 71 -53 149 -121 216 -72 70 -76 73 -135 101 -44 21 -47 26
-92 137 -69 166 -98 281 -105 415 -6 109 -5 112 15 112 12 0 51 11 86 24 236
85 408 292 424 511 2 39 8 72 12 75 29 22 112 208 154 350 l26 85 -6 -60 c-8
-78 -26 -167 -57 -286 -14 -52 -33 -158 -42 -235 -9 -76 -21 -179 -27 -229
-12 -105 -5 -235 17 -320 33 -125 117 -253 196 -299 30 -18 29 -15 -19 43
-109 131 -152 246 -158 421 l-4 115 20 -75 c52 -194 165 -331 345 -416 108
-52 213 -76 335 -77 127 -1 205 19 291 74 32 21 59 36 59 33 0 -4 -21 -37 -46
-75 -89 -134 -226 -225 -407 -272 l-88 -22 -39 23 c-49 28 -54 28 -35 -2 18
-27 89 -67 164 -91 66 -21 205 -17 266 9 l40 17 -35 -36 c-102 -106 -261 -158
-366 -121 -22 7 -57 16 -79 19 l-40 7 50 -25 c28 -13 106 -51 175 -83 330
-156 519 -385 520 -630 0 -102 -17 -184 -86 -425 -30 -103 -61 -219 -69 -258
-19 -87 -19 -228 -1 -294 44 -167 187 -295 328 -295 l58 0 0 1349 0 1349 -87
-44 c-49 -25 -103 -47 -122 -51 -33 -6 -33 -6 -20 18 7 13 20 50 29 82 9 32
18 58 20 59 3 0 35 -2 72 -6 37 -4 77 -5 88 -1 20 6 20 7 20 1626 l0 1619
-457 0 -458 0 65 -38 c134 -78 279 -190 329 -253 l20 -25 -55 18 c-235 79
-648 -32 -939 -252 l-65 -49 -36 21 c-46 27 -103 37 -155 28 -32 -6 -39 -5
-35 6 18 43 14 45 -17 11 -32 -35 -37 -37 -56 -25 -29 18 -27 76 7 210 15 59
25 104 21 100 -13 -14 -59 -140 -70 -192 l-11 -53 -16 32 c-8 18 -34 49 -57
69 l-42 37 13 52 c19 73 75 182 129 247 38 47 42 56 25 56 -41 0 -145 -164
-186 -292 -17 -57 -18 -58 -56 -58 -21 0 -57 -9 -79 -21 -40 -20 -42 -20 -120
-3 -43 9 -79 22 -79 28 0 50 187 224 326 306 l69 40 -2008 0 -2007 0 0 -3000z
m3636 2847 c-33 -43 -56 -109 -56 -160 0 -39 0 -39 -31 -33 -17 3 -49 6 -70 6
-35 0 -39 3 -39 25 0 56 72 139 154 176 61 27 71 24 42 -14z m1759 -169 c71
-15 146 -52 188 -93 70 -68 153 -237 199 -403 19 -66 22 -105 22 -267 1 -269
-21 -356 -204 -805 -171 -418 -208 -544 -217 -737 -7 -146 5 -220 52 -319 56
-117 171 -216 305 -263 30 -11 56 -23 58 -29 5 -16 -85 -127 -126 -156 -33
-23 -46 -26 -83 -21 l-44 6 24 -21 c30 -26 24 -31 -68 -60 -78 -25 -212 -27
-314 -4 -110 24 -244 93 -318 163 l-62 60 6 114 c13 234 89 539 235 933 122
328 135 372 157 503 38 226 -16 431 -148 569 -61 63 -127 110 -199 138 -34 14
-83 45 -109 67 -25 23 -83 64 -128 90 -44 27 -81 52 -81 57 0 9 73 71 143 120
26 18 47 35 47 37 0 10 -106 -53 -164 -96 -36 -27 -67 -47 -70 -43 -2 4 -9 33
-15 65 -6 31 -15 65 -20 75 -8 16 -2 25 38 56 27 20 89 60 137 89 270 161 540
223 759 175z m-2425 -60 c30 -6 103 -28 163 -49 59 -21 107 -36 107 -34 0 2
-29 21 -65 42 -52 30 -62 39 -49 46 23 13 294 11 393 -3 354 -49 637 -194 931
-475 142 -136 217 -192 120 -89 -103 109 -124 134 -114 134 15 0 217 -123 264
-161 88 -71 130 -230 100 -381 -12 -62 -44 -138 -58 -138 -4 0 -22 33 -41 72
-45 97 -180 230 -421 416 -102 78 -210 164 -240 190 l-55 47 33 -40 c43 -51
47 -54 253 -220 196 -157 352 -307 393 -378 16 -26 27 -49 25 -51 -9 -7 -401
217 -463 265 -325 251 -486 360 -690 463 -295 150 -618 241 -921 261 -142 9
-182 15 -163 26 28 16 209 61 277 69 71 9 133 5 221 -12z m969 2 c19 -5 48
-22 64 -37 29 -28 62 -81 55 -89 -3 -2 -49 16 -104 41 -54 25 -104 45 -111 45
-27 0 -22 21 9 35 40 17 44 18 87 5z m-1509 -130 c-17 -13 -27 -15 -32 -7 -10
17 0 27 30 27 l27 0 -25 -20z m191 -16 c57 -14 108 -28 112 -31 4 -2 -6 -20
-23 -39 -16 -19 -39 -51 -49 -72 -11 -20 -40 -54 -66 -75 -25 -21 -58 -56 -72
-78 -26 -39 -48 -46 -80 -26 -7 5 -17 5 -23 2 -5 -3 -10 -1 -10 5 0 7 -7 9
-16 6 -8 -3 -12 -2 -9 4 3 6 0 10 -7 10 -35 1 -95 13 -113 23 -14 7 -20 7 -23
-2 -3 -9 -7 -9 -18 0 -7 6 -21 9 -29 5 -9 -3 -13 -2 -10 4 3 6 1 10 -6 10 -19
0 21 39 68 66 22 14 44 32 47 41 5 11 14 14 36 9 16 -3 38 -2 47 1 14 6 12 9
-12 20 -19 8 -23 12 -10 11 23 -3 45 9 45 24 0 6 -6 6 -15 -2 -9 -7 -18 -11
-21 -8 -8 9 119 118 137 118 9 0 63 -12 120 -26z m-271 -4 c8 -16 8 -18 -4
-14 -17 6 -30 34 -16 34 5 0 14 -9 20 -20z m430 10 c27 -17 -12 -22 -55 -6
l-40 15 40 0 c22 0 47 -3 55 -9z m193 -34 c54 -13 100 -26 102 -28 6 -5 -14
-69 -24 -79 -10 -11 -216 96 -219 114 -5 23 22 22 141 -7z m-658 4 c-3 -5 -12
-10 -18 -10 -7 0 -6 4 3 10 19 12 23 12 15 0z m627 -92 l97 -41 -52 -57 c-53
-59 -139 -194 -158 -249 -13 -36 -27 -39 -62 -11 -27 21 -163 100 -172 100 -4
0 -3 -4 0 -10 3 -5 0 -7 -9 -4 -8 3 -17 12 -20 21 -4 8 -13 13 -21 9 -10 -4
-15 1 -15 16 0 13 26 47 69 87 37 37 76 82 85 100 10 18 33 50 52 71 l36 39
36 -15 c21 -8 81 -33 134 -56z m1433 44 c34 -20 75 -93 75 -134 0 -33 -1 -33
-43 -12 -32 17 -207 143 -207 150 0 2 15 8 33 13 41 13 103 5 142 -17z m-2095
-3 c0 7 5 9 10 6 6 -3 10 -13 10 -22 0 -13 -9 -15 -48 -10 -26 3 -54 2 -61 -2
-7 -5 -22 -6 -32 -4 -17 5 -17 7 6 25 18 14 34 18 50 14 16 -4 25 -2 25 5 0 7
8 5 20 -6 12 -11 20 -13 20 -6z m1045 -64 c39 -15 71 -29 73 -30 16 -13 -136
-371 -195 -462 -14 -22 -15 -21 -96 41 -127 97 -142 96 -37 -2 52 -50 92 -93
88 -97 -9 -10 -308 165 -308 180 0 23 80 173 124 233 24 32 57 69 74 80 28 21
32 21 66 7 45 -19 47 -11 4 11 -18 9 -34 17 -36 19 -1 1 3 17 9 36 6 19 12 39
14 46 4 13 99 -13 220 -62z m-1055 8 c0 -5 -23 -21 -51 -38 -27 -16 -59 -40
-71 -52 -11 -12 -26 -19 -33 -17 -7 3 -16 1 -19 -5 -5 -7 -13 -7 -25 1 -20 12
-75 3 -66 -12 3 -6 -1 -10 -10 -10 -11 0 -15 5 -11 15 4 10 -2 19 -15 24 -20
7 -20 9 12 36 60 50 105 65 202 65 48 0 87 -3 87 -7z m-354 -74 c-15 -18 -26
-43 -26 -60 0 -19 -5 -29 -15 -29 -41 0 -22 70 27 100 43 26 44 25 14 -11z
m1634 -40 c66 -33 129 -68 140 -77 l20 -17 -20 -105 c-11 -58 -20 -116 -20
-130 0 -41 -28 -140 -59 -205 -27 -58 -90 -135 -111 -135 -5 0 -42 28 -81 63
-40 34 -95 80 -123 103 -83 67 -83 64 -43 136 55 99 144 307 158 371 7 31 14
57 16 57 3 0 58 -27 123 -61z m-1580 1 c0 -5 -10 -10 -22 -9 -22 0 -22 1 -3 9
11 5 21 9 23 9 1 1 2 -3 2 -9z m95 -10 c-3 -5 -12 -10 -18 -10 -7 0 -6 4 3 10
19 12 23 12 15 0z m267 -120 c199 -42 414 -132 642 -270 66 -40 253 -161 415
-270 356 -237 420 -278 576 -362 201 -110 417 -197 625 -253 52 -13 97 -28
101 -32 10 -10 -65 -237 -110 -337 l-32 -69 -16 24 c-68 102 -157 139 -260
110 -28 -8 -32 -7 -35 12 -3 18 -14 7 -52 -53 -57 -87 -180 -255 -193 -263 -6
-4 -10 43 -10 111 -2 277 -75 542 -183 665 -64 72 -66 56 -6 -35 30 -46 57
-93 61 -105 7 -26 15 -26 -138 3 -231 44 -505 175 -607 291 -48 55 -53 38 -12
-44 36 -75 156 -201 229 -242 46 -25 52 -31 28 -27 -16 3 -59 8 -95 11 -116
12 -324 54 -418 84 -196 64 -328 147 -486 305 -84 83 -109 116 -144 186 -48
96 -65 172 -57 245 5 41 4 47 -6 31 -7 -11 -13 -58 -13 -106 -1 -80 -4 -90
-36 -144 -48 -80 -173 -212 -244 -257 -63 -41 -137 -72 -201 -84 l-40 -7 45
41 45 41 -91 -43 c-50 -23 -92 -46 -95 -52 -9 -22 155 -28 209 -8 13 6 14 -14
8 -163 -4 -93 -9 -171 -11 -173 -2 -2 -32 19 -67 47 -131 104 -201 225 -228
392 -12 77 -10 89 37 300 4 18 -8 7 -41 -36 -48 -64 -69 -107 -92 -184 -13
-43 -14 -40 -10 65 3 120 20 179 87 293 83 141 358 366 468 384 84 13 349 0
453 -22z m1663 -204 c-4 -28 -11 -82 -17 -121 -5 -38 -9 -102 -9 -140 2 -89
-27 -186 -70 -238 l-32 -39 -29 32 c-18 20 -34 30 -44 26 -8 -3 -12 -10 -9
-16 9 -15 -4 -30 -21 -23 -13 5 -13 7 -2 14 10 7 10 9 -2 9 -13 0 -13 1 0 10
9 6 11 10 3 10 -7 0 -10 7 -6 17 4 11 3 14 -5 9 -7 -4 -19 0 -28 8 -18 18 -34
13 -34 -11 0 -9 6 -13 15 -9 8 3 15 1 15 -4 0 -19 -18 -18 -50 1 -24 15 -30
23 -20 29 7 4 9 13 6 19 -9 14 -46 15 -46 1 0 -5 -17 3 -39 18 l-38 27 39 44
c49 57 94 148 112 231 18 79 46 268 46 304 0 26 5 24 135 -65 l135 -92 -5 -51z
m924 19 c84 -52 184 -172 219 -260 38 -95 50 -236 32 -355 -18 -115 -105 -395
-160 -515 -5 -11 -25 -65 -46 -120 -112 -303 -162 -516 -190 -800 l-7 -70 -23
50 c-41 88 -56 164 -61 307 -5 119 -3 151 17 235 12 53 33 113 45 133 13 19
28 54 35 77 6 23 16 48 24 55 7 7 11 19 8 26 -2 6 1 12 7 12 6 0 17 14 26 30
14 27 21 30 60 30 25 0 45 5 45 10 0 6 6 10 14 10 14 0 27 41 32 100 1 19 3
35 4 35 1 0 3 7 5 16 1 9 6 26 9 37 4 11 2 23 -4 27 -5 3 -10 -1 -10 -11 0
-13 -3 -14 -15 -4 -16 13 -21 35 -6 26 12 -8 41 3 41 15 0 5 -9 9 -20 9 -11 0
-20 4 -20 9 0 5 -9 7 -20 4 -20 -5 -28 -23 -10 -23 5 0 7 -6 4 -14 -4 -12 -10
-10 -26 6 -18 18 -19 25 -9 57 32 106 40 171 21 171 -5 0 -10 -8 -11 -17 0
-14 -2 -15 -6 -3 -2 8 -9 25 -15 37 -8 15 -7 40 1 85 7 35 11 68 10 73 -1 6 1
23 6 38 4 16 3 33 -2 38 -17 17 -41 -1 -47 -36 -4 -19 -11 -37 -16 -40 -6 -4
-7 7 -3 26 5 26 3 31 -8 24 -11 -6 -12 -5 -1 6 17 18 15 39 -4 39 -12 0 -15 5
-9 23 39 120 46 166 42 247 -3 49 -14 108 -25 137 l-20 52 24 -9 c13 -5 41
-21 63 -35z m-705 -139 l49 -40 -6 -91 c-4 -49 -9 -111 -13 -138 l-7 -47 -26
16 c-14 8 -5 -5 21 -30 46 -43 47 -46 36 -78 -6 -18 -16 -36 -22 -40 -7 -5 -7
-8 -1 -8 6 0 -3 -7 -19 -15 -48 -25 -212 -22 -275 6 l-50 21 24 32 c52 68 69
124 77 256 4 69 10 166 14 217 l7 92 71 -56 c39 -31 93 -75 120 -97z m-983
-43 l24 -27 -32 23 c-33 23 -40 31 -25 31 5 0 19 -12 33 -27z m1154 -98 c42
-41 80 -75 84 -75 4 0 19 -24 34 -52 28 -58 39 -128 28 -197 l-6 -43 -105 69
c-149 99 -141 84 -133 241 3 73 9 132 13 132 4 0 42 -34 85 -75z m-2122 -242
c48 -61 187 -186 267 -240 205 -139 568 -234 885 -232 134 1 156 10 75 32
-116 33 -207 89 -285 176 l-40 44 60 -40 c83 -57 224 -124 322 -153 91 -28 93
-30 93 -116 l0 -51 -52 9 c-231 38 -449 47 -696 28 -137 -11 -163 -18 -137
-40 13 -11 45 -13 143 -10 129 5 743 3 747 -2 4 -4 24 -212 21 -215 -1 -2 -44
19 -95 45 -91 46 -95 47 -199 51 -147 4 -374 -17 -465 -45 -16 -5 -18 -1 -15
28 3 30 8 35 58 52 79 27 234 32 355 12 54 -9 100 -15 102 -12 9 9 -102 36
-181 45 -126 14 -290 -14 -347 -61 -13 -11 -18 -17 -11 -13 16 9 15 1 -7 -43
-16 -32 -29 -41 -78 -57 l-58 -20 48 -3 c26 -2 47 -5 47 -8 0 -3 -7 -16 -16
-29 -22 -34 -11 -31 42 10 53 40 92 47 224 43 l95 -3 6 -80 c12 -167 79 -235
166 -169 45 34 74 95 81 167 l5 59 51 -7 c28 -3 55 -10 60 -15 11 -11 -32 -72
-78 -112 -58 -51 -3 -29 97 38 56 38 104 64 112 60 10 -3 15 -19 15 -43 1 -21
9 -103 20 -183 11 -80 25 -273 32 -429 l11 -285 -44 -39 c-69 -62 -244 -176
-349 -228 -320 -158 -673 -233 -865 -184 -240 61 -546 345 -691 640 l-44 90
10 380 c6 209 15 458 20 553 6 95 10 232 10 305 l0 132 66 40 c75 45 191 162
253 254 l43 63 32 -65 c18 -36 54 -91 79 -124z m2355 18 c12 -7 22 -18 22 -26
0 -8 8 -18 17 -23 30 -17 77 -106 89 -166 l6 -37 -78 37 c-44 20 -85 38 -92
41 -8 4 -11 24 -8 67 2 34 0 84 -4 110 -7 46 -6 48 9 29 9 -12 26 -26 39 -32z
m-293 -41 c3 -5 1 -10 -4 -10 -6 0 -11 5 -11 10 0 6 2 10 4 10 3 0 8 -4 11
-10z m11 -48 c-4 -3 -14 2 -24 12 -16 18 -16 18 6 6 13 -6 21 -14 18 -18z
m624 -382 c0 -5 -2 -10 -4 -10 -3 0 -8 5 -11 10 -3 6 -1 10 4 10 6 0 11 -4 11
-10z m30 0 c0 -5 -5 -10 -11 -10 -5 0 -7 5 -4 10 3 6 8 10 11 10 2 0 4 -4 4
-10z m-1199 -24 c88 -15 86 -11 125 -181 23 -103 28 -144 29 -295 1 -106 6
-175 12 -177 6 -2 36 24 67 57 31 34 56 58 56 53 0 -4 -7 -29 -15 -56 -46
-154 -88 -422 -88 -567 0 -169 35 -309 126 -515 76 -172 99 -251 104 -362 6
-117 -5 -161 -61 -246 -37 -56 -180 -218 -306 -346 -123 -126 -145 -216 -91
-382 58 -179 50 -275 -28 -374 -167 -210 -191 -285 -126 -403 l24 -43 -29 21
c-79 56 -134 163 -134 262 0 62 4 75 61 190 73 145 87 194 81 285 -6 104 -38
163 -156 286 -88 91 -101 109 -107 148 -12 81 34 176 168 352 177 231 214 298
249 459 22 97 23 124 22 458 0 361 -10 546 -44 840 -10 91 -26 235 -35 320 -8
85 -18 174 -21 198 -6 42 -6 43 18 37 14 -4 58 -12 99 -19z m1099 -30 c0 -3
-4 -8 -10 -11 -5 -3 -10 -1 -10 4 0 6 5 11 10 11 6 0 10 -2 10 -4z m-3158
-126 c5 -63 -8 -603 -23 -916 -20 -428 -2 -597 90 -848 58 -157 74 -228 73
-321 0 -84 -17 -132 -82 -246 -64 -111 -94 -180 -109 -247 -16 -77 -14 -117
14 -246 41 -190 32 -278 -41 -392 -40 -62 -77 -99 -119 -120 -27 -14 -28 -13
-11 0 77 61 74 153 -7 245 -48 56 -67 107 -67 188 0 111 16 166 97 329 82 167
95 221 73 315 -18 79 -31 98 -127 201 -52 56 -96 113 -110 146 l-25 53 37 217
c39 230 41 239 133 512 67 196 87 285 102 445 17 190 11 532 -15 757 l-6 48
60 -38 c56 -35 59 -39 63 -82z m3218 95 c0 -8 -4 -15 -10 -15 -5 0 -7 7 -4 15
4 8 8 15 10 15 2 0 4 -7 4 -15z m-24 -70 c10 -8 14 -15 7 -15 -6 0 -20 -3 -30
-6 -15 -5 -16 -4 -3 5 13 10 13 12 0 21 -8 5 -10 10 -4 10 5 0 19 -7 30 -15z
m-532 -199 c45 -19 83 -61 101 -115 71 -210 -132 -507 -404 -591 -35 -11 -66
-19 -68 -17 -5 5 33 241 53 332 55 251 102 362 168 391 40 17 108 18 150 0z
m-1158 -57 c3 -6 1 -16 -5 -22 -9 -9 -14 -8 -21 3 -9 15 -4 30 10 30 5 0 12
-5 16 -11z m104 -146 c-1 -5 -9 -18 -19 -30 -21 -25 -50 -30 -69 -11 -10 10
-5 16 25 30 42 18 63 22 63 11z m-2115 -674 c63 -47 151 -87 215 -97 l48 -7
-30 -75 c-16 -41 -31 -76 -32 -77 -1 -2 -16 3 -33 9 -27 10 -36 8 -79 -17
l-48 -28 -33 38 c-64 74 -107 197 -118 335 l-6 75 33 -59 c20 -37 51 -73 83
-97z m543 6 c9 -19 8 -34 -4 -70 -9 -25 -18 -45 -20 -45 -2 0 -4 32 -4 70 0
73 9 87 28 45z m95 -153 c147 -210 391 -412 560 -463 37 -12 109 -24 160 -28
l92 -6 -90 -29 c-49 -15 -108 -37 -130 -48 -22 -11 -80 -26 -130 -34 -71 -11
-111 -24 -190 -63 -55 -27 -113 -52 -130 -55 -111 -18 -102 -19 -109 11 -4 16
-31 97 -61 180 -57 160 -79 258 -90 408 -7 89 -7 90 27 147 18 32 34 57 35 58
1 0 26 -35 56 -78z m1867 -321 c-15 -164 -50 -300 -95 -367 -31 -48 -38 -53
-82 -60 -171 -24 -393 -183 -492 -353 -55 -94 -91 -205 -94 -291 l-2 -70 -35
-10 c-19 -5 -52 -10 -73 -10 -46 0 -131 41 -153 74 -14 23 -13 30 15 113 29
85 58 264 45 284 -3 5 0 42 6 80 9 54 9 97 1 183 -12 109 -31 214 -45 248 -6
14 1 18 41 23 168 24 348 78 533 159 129 58 221 112 338 201 l97 73 3 -77 c2
-42 -2 -132 -8 -200z m1998 171 c56 -83 78 -200 51 -269 l-11 -28 -12 31 c-23
64 -84 129 -164 174 -10 5 0 24 39 74 29 36 56 66 59 66 3 0 20 -22 38 -48z
m-321 -232 c12 -32 6 -32 -30 -2 -13 12 -15 17 -5 24 20 12 23 10 35 -22z
m-72 -20 c18 -20 17 -20 -8 -20 -14 0 -38 6 -53 12 l-27 13 24 6 c39 11 45 10
64 -11z m-1016 -130 c80 -77 115 -152 115 -245 0 -88 -17 -125 -124 -265 -44
-58 -105 -141 -137 -185 -125 -176 -345 -410 -380 -403 -42 8 -41 160 1 232
14 24 82 101 151 172 155 159 234 255 271 331 26 53 29 67 28 168 0 173 -4
207 -25 236 -51 72 8 48 100 -41z m1493 -181 c107 -104 143 -179 143 -299 0
-101 -22 -169 -72 -226 -31 -36 -33 -37 -20 -9 47 98 41 236 -14 352 -57 119
-166 180 -393 219 -50 8 -109 20 -131 26 l-40 10 60 22 c34 12 85 40 114 62
l53 41 111 -61 c83 -46 131 -80 189 -137z m-3563 14 c-137 -93 -203 -169 -275
-316 -58 -118 -78 -213 -72 -334 6 -104 -3 -110 -26 -18 -21 78 -20 126 3 216
55 215 212 422 358 475 64 22 68 16 12 -23z m484 -91 l4 -53 -24 43 c-14 24
-34 53 -45 65 l-21 23 34 14 c33 14 34 14 41 -12 3 -15 8 -51 11 -80z m2857
41 c153 -44 215 -97 252 -218 28 -89 29 -183 4 -252 -22 -57 -36 -60 -36 -7 0
49 -35 148 -78 219 -42 69 -184 216 -257 264 l-50 33 40 -8 c22 -3 78 -18 125
-31z m-4168 -90 c38 -39 39 -42 21 -52 -11 -5 -39 -26 -62 -46 -24 -19 -48
-35 -53 -35 -11 0 -7 71 8 193 l7 48 19 -33 c11 -18 38 -52 60 -75z m2108 15
c-121 -73 -164 -106 -217 -161 -150 -158 -223 -331 -210 -505 7 -108 38 -183
101 -249 53 -54 46 -62 -22 -21 -41 25 -74 68 -108 142 -47 104 -36 274 27
414 66 148 202 292 339 361 89 44 154 58 90 19z m-950 -30 c31 -16 51 -36 68
-68 22 -41 23 -53 19 -150 -9 -191 -87 -357 -210 -444 -56 -39 -61 -41 -135
-41 -64 0 -82 4 -108 22 -43 31 -67 85 -72 168 -6 95 11 170 64 274 48 96 104
166 168 210 81 55 138 63 206 29z m2318 -196 c22 -17 20 -18 -117 -40 -78 -13
-229 -43 -338 -67 -108 -25 -198 -43 -200 -42 -1 2 8 15 20 30 19 23 42 31
187 63 182 39 362 72 400 73 14 0 35 -7 48 -17z m-3921 -54 c-3 -8 -6 -5 -6 6
-1 11 2 17 5 13 3 -3 4 -12 1 -19z m4039 -22 c23 -17 36 -13 -176 -51 -80 -14
-257 -51 -395 -82 -137 -30 -261 -58 -274 -61 -21 -4 -22 -3 -11 17 6 12 21
26 33 31 47 19 528 118 747 153 47 8 56 7 76 -7z m-3227 -247 c30 -9 40 -19
55 -55 10 -24 38 -67 63 -94 43 -48 45 -53 39 -93 -4 -23 -21 -65 -38 -93
l-30 -51 -58 14 -57 15 -24 91 c-32 127 -31 277 3 277 6 0 27 -5 47 -11z
m-1437 -96 c9 -43 14 -94 12 -113 -4 -27 4 -53 35 -113 23 -44 41 -86 41 -93
0 -8 7 -28 15 -44 l15 -29 -46 -7 c-62 -9 -87 5 -132 75 -52 80 -77 160 -77
247 0 58 4 76 20 94 17 19 80 58 95 60 3 0 13 -35 22 -77z m2282 -29 c13 -5
86 -112 86 -125 0 -9 -222 -1 -231 8 -6 6 4 19 29 37 21 14 51 40 67 56 16 17
30 30 31 30 1 0 9 -3 18 -6z m356 -81 c7 -21 16 -42 21 -48 21 -22 7 -33 -53
-37 -54 -4 -104 4 -178 28 -11 4 -1 18 35 49 46 41 54 44 107 45 l56 0 12 -37z
m-232 -94 c29 -4 71 -13 93 -19 35 -10 39 -14 39 -44 0 -18 -7 -53 -16 -79
-14 -40 -21 -48 -52 -57 -143 -39 -279 -10 -321 69 -26 47 1 126 49 144 18 7
133 -1 208 -14z m-2149 -185 c2 -2 -15 -4 -38 -4 -35 0 -48 6 -72 31 -16 17
-29 35 -29 39 0 7 126 -53 139 -66z"/>
<path d="M4145 5170 c50 -47 117 -110 150 -140 l59 -55 -57 67 c-57 66 -123
126 -202 184 -22 16 1 -9 50 -56z"/>
<path d="M1852 4197 c21 -12 75 -42 120 -67 46 -25 130 -80 186 -123 100 -75
133 -89 140 -57 6 33 -249 198 -376 244 -90 32 -121 33 -70 3z"/>
<path d="M1889 3985 c-36 -18 -71 -40 -78 -49 -12 -14 -10 -16 13 -16 15 0 28
-6 31 -12 2 -7 13 -46 25 -85 12 -40 24 -73 27 -73 3 0 2 36 -1 80 l-7 80 29
0 c15 0 57 -17 93 -39 l64 -39 6 -118 c10 -204 57 -261 139 -167 28 32 31 41
28 88 -2 42 0 51 10 43 17 -14 16 3 -3 39 -8 15 -17 42 -21 58 -5 25 -7 27
-13 12 -6 -16 -14 -9 -51 41 -89 119 -171 193 -213 192 -7 -1 -42 -16 -78 -35z
m251 -245 c0 -11 -4 -20 -10 -20 -5 0 -10 9 -10 20 0 11 5 20 10 20 6 0 10 -9
10 -20z m62 -181 c-4 -17 -23 -30 -34 -23 -4 3 -12 13 -18 23 -8 16 -6 18 23
17 22 -2 31 -7 29 -17z"/>
<path d="M2115 3956 c33 -20 79 -58 102 -84 47 -52 57 -47 19 9 -28 40 -105
94 -151 104 -22 6 -15 -2 30 -29z"/>
<path d="M2389 3565 c-3 -51 -12 -87 -33 -128 -31 -64 -124 -163 -204 -217
-29 -19 -52 -42 -52 -51 0 -23 52 -99 99 -144 22 -21 41 -36 41 -31 0 4 -28
46 -61 92 -34 47 -60 86 -58 88 2 1 29 19 60 39 157 103 255 277 221 392 -8
26 -10 20 -13 -40z"/>
<path d="M2155 2691 c3 -6 39 -28 80 -51 91 -50 192 -73 295 -67 73 4 200 35
200 48 0 9 -38 19 -72 19 -29 0 -46 -15 -26 -23 7 -2 -23 -7 -67 -11 -121 -11
-244 13 -357 70 -52 26 -62 29 -53 15z"/>
<path d="M4315 3496 c-78 -35 -160 -160 -220 -339 -45 -134 -29 -144 22 -12
39 104 83 186 95 179 17 -11 38 -71 38 -108 0 -25 -13 -54 -45 -101 -44 -64
-44 -65 -16 -51 97 51 128 189 56 256 -14 13 -25 29 -25 35 0 6 16 30 36 53
86 100 161 93 172 -16 5 -58 -16 -140 -59 -224 -35 -69 -21 -77 21 -12 42 67
64 139 65 215 0 74 -15 111 -52 128 -31 14 -51 13 -88 -3z"/>
<path d="M2480 1621 c-105 -32 -191 -135 -234 -280 -32 -110 -8 -233 49 -247
76 -19 190 72 255 201 30 61 35 82 38 163 5 104 -7 148 -45 163 -27 10 -29 10
-63 0z"/>
</g>
</svg>
