<svg version="1" xmlns="http://www.w3.org/2000/svg" width="666.667" height="666.667" viewBox="0 0 500.000000 500.000000"><path d="M118 1c65.2.3 117.1.6 115.3.8-1.7.1-3.3.7-3.5 1.3-.2.5-2.3 1.3-4.8 1.6-3.4.5-4 .8-2.5 1.4 1.7.7 1.7.8-.6.8-1.5.1-2.9.8-3.3 1.6-.3.8-1.3 1.5-2.2 1.5-1 0-1.4.3-1.1.6.4.4-.9 2.2-2.9 4-1.9 1.9-3.3 3.4-3 3.4 1.5 0-3.6 4-5.1 4.1-1.2 0-1.3.2-.5.6 2.1.8-1.6 4.3-4.7 4.4l-2.6.1 2.5.8c1.7.5 1.9.8.8.9-1 .1-1.8.5-1.8 1.1 0 .5-1.1 1.2-2.5 1.6-1.4.4-2.4.9-2.1 1.1.7.8-5 6.3-6.5 6.3-.7 0-1 .3-.7.6.9.9-3 4.4-4.9 4.5-1 0-1.3.3-.6.5 1.5.7-1.5 4.4-3.7 4.5-.9 0-1 .2-.3.5.8.4.7 1.1-.4 2.4-.9 1.1-1.8 2.9-2 4.2-.2 1.2-.7 2.5-1.1 2.8-.4.3-.8 1.4-.8 2.5-.4 4.6-1.6 9-2.7 9.7-.9.6-.9.8 0 .8 1.4 0 .6 3.1-1.1 4.2-.8.5-.7.8.1.8.9 0 1 .7.3 2.4-.5 1.3-.6 2.7-.3 3 .4.3.2.6-.4.6-.5 0-1 .6-1 1.2-.2 3.6-1.5 8.3-2.6 9-.9.6-.9.8.1.8.7 0 1 .5.6 1.1-.6 1-.9 3.7-1.6 13.6-.1 1-3.2 1.3-11.7 1.4-6.4 0-11 .3-10.3.6 1 .4 1 .8.1 1.9-1 1.2.6 1.4 10.3 1.4h11.4l.2 5.5c.1 3.7-.4 5.9-1.4 7-.9.8-1.2 1.5-.8 1.5.4 0-.4 1-1.7 2.2-1.4 1.3-2.4 2.6-2.4 3 0 .4-.8 1.6-1.7 2.8-1 1.1-1.3 2-.8 2 1.8 0-.9 4-2.8 4.1-1.4 0-1.4.2.3.9 1.1.5 1.4.9.7.9-.6.1-1.1.4-1 .8.1.5-.3 1.8-1 2.9-.6 1.2-.8 2.4-.5 2.8.3.3.1.6-.5.6-.7 0-1.2.7-1.2 1.5s-.5 1.5-1 1.5c-.6 0-.9.3-.9.7.5 2.8-.3 4.3-2.3 4.4-1.7.1-1.8.3-.6.6 2.2.6 1.2 3.2-1.6 4.3-1.6.7-1.7.9-.4.9 2.2.1 1.2 4.1-1.1 4.1-1.4 0-1.4.2-.1 1 1.1.7 1.1 1 .2 1-.7 0-1 .4-.7 1 .4.6-1.5 1-4.9 1-6.3 0-8.5 1.7-2.9 2.3l3.8.4-4 .1c-3.3.2-4.1.6-4.2 2.1-.1 1.5.6 2.1 3 2.4 2.6.3 2.3.4-1.3.6-3.3.1-4.1.4-3 1.1 1 .6 1.1 1 .3 1-.7 0-1.3.4-1.3 1 0 .5 2.6 1 5.8 1.1 4.1 0 5.1.3 3.7.9-1.6.7-1.7.9-.3.9 1.1.1 1.5.7 1.1 2.1-.3 1.1-.9 2-1.4 2-.4 0-.6.9-.4 2 .2 1.1-.1 2.2-.6 2.5-.5.4-.7 1.1-.4 1.6.4.5.2.9-.2.9-.5 0-.9 1-1 2.2-.1 1.1-.8 2.5-1.5 2.9-1 .7-1 .9.2.9 1.1 0 1.2.2.3.8-.7.4-1.4 2.1-1.7 3.7-.3 1.7-.9 4.3-1.2 6-.4 1.6-.7 3.6-.7 4.2 0 .7-.3 1.3-.7 1.3-1.1 0-.8 3.4.4 4.2.6.5 0 .8-1.4.9-1.4 0-2 .3-1.3.5.7.3 1 1.1.7 1.9-.3.7.3 1.5 1.3 1.8 1.2.3.8.5-1.2.7l-3 .2 3 .8c2.8.7 2.8.8.5.9-2.4.2-2.4.2-.6 1.6 1.9 1.5 1.9 1.5-.5 1.6-2.2.1-2.1.2.6.9l3 .8-3 .2c-1.8.1-2.3.4-1.2.7 2.4.6 2.1 2.1-.5 2.6-1.7.3-1.3.5 1.2.7l3.5.3-3.5.7c-3.5.7-3.5.7-.5.9 2.8.2 2.9.3 1.2 1.6-1.8 1.3-1.7 1.4.5 1.8 1.5.3 1 .5-1.7.7l-4 .3 3.5.7c3.2.7 3.1.8-2 .9-9.4.4-10.5 1.9-1.5 2.1 5.9.2 7.2.4 5 1l-3 .8 3 .2c2.5.2 2.6.3.8.7-2.7.5-3 2-.5 2.6 1.2.3 1 .5-.8.7l-2.5.2 2.5.8c2.3.7 2.3.8.4.9-2.5.1-2.8 3.2-.4 4.3 1.1.5 1 .7-.5.7-1.2.1-2.2.8-2.3 1.8-.1 1-.4 2.7-.6 3.8-.2 1.1-.5 2.6-.5 3.2-.1.7-.9 1.3-1.8 1.4-1 0-1.3.3-.7.5 1.7.7.5 4.4-1.5 4.5-1.2 0-1.1.2.4.9 1.9.8 1.9.9.1.9-2 .1-2 .1 0 1.7 1 .8 1.4 1.3.9 1-.6-.2-1.7-.1-2.5.5-1.2.7-.9.9 1 1l2.5.1-2.5.8c-1.4.4-1.8.9-1 .9 1.2.1 1.1.5-.4 1.6-1.9 1.4-1.7 1.5 2 1.7 3.8.1 3.7.1-1.1.8l-5 .7 4.5.2c3.3.1 4.1.4 3 1.1-.8.5-2.3.7-3.3.4-.9-.3-1.7-.1-1.7.5 0 .5 1.2 1.2 2.8 1.4 1.7.3 1 .5-2.3.7l-5 .3 4.5.7c2.5.4 3.4.8 2.1.8-2.4.2-2.4.2-.5 1.7 1.8 1.3 1.6 1.4-2.6 1.6l-4.5.2 4.5.7c2.5.4 4 .8 3.5.8-.6.1-1.1 1-1.2 1.9-.1 1.6-.9 5-1.3 6.3-.1.3-.2.8-.1 1.2 0 .5-1.1.8-2.6.9l-2.8.1 2.5.8c1.4.4 1.9.8 1.1.9-.7.1-1.1.7-.7 1.6.5 1.3-3.6 1.5-32.2 1.7l-32.7.3 27 .5 27 .5-26.7.3c-17.1.1-26.8.6-26.8 1.2s4.4 1.1 10.8 1.2l10.7.2-12 .6c-9.9.5-7.1.7 15.5 1l27.5.5-28.5.5c-22.8.4-26.9.7-20.5 1.3 11.9 1.2 12 1.4 1 1.8-5.5.2 2.6.6 18 .9l28 .5-28 .4c-15.4.3-26.3.6-24.2.8 5.1.6 3.7 2.2-2.1 2.5-2.6.2 7.9.5 23.3.8l28 .5-29.5.5c-20.7.3-26.7.6-20 1 7.4.5 8.3.7 4.3.9-17 1.1-13.7 1.5 14.2 2.1l27 .5-29 .5-29 .4 22.5.6 22.5.6-21.2.2c-13.4.1-21.3.6-21.3 1.2s7.4 1.1 19.8 1.2l19.7.2-22.5.6-22.5.6 28.5.4 28.5.5-28.5.5c-15.7.3-26.2.6-23.3.8 7.9.3 7.6 2.2-.4 2.4-3.7.2 5.8.5 21.2.8l28 .5-36.5.4c-20.1.3-33.6.7-30 1 7.4.7 6.8 2.3-.8 2.1-2.6-.1-5.4 0-6.2.1-.8.2 14.5.7 34 1.1 19.5.4 44.1 1 54.7 1.3 19 .6 19.2.6 17.5 2.5-.9 1.1-2.3 2-3.2 2.1-1 0-.9.3.5.9 1.2.5-4.5.9-14.7.9-13.9.1-16.8.4-16.8 1.5 0 .8-.8 1.7-1.7 1.9-1.7.4-1.7.5 0 .6 1.6.1 1.6.3-.2 2.3-1.1 1.1-1.8 2.5-1.5 3 .3.4-.2.8-1.1.8-.9 0-1.4.4-1 .9.3.5 0 1.3-.6 1.7-.8.4-.7.9.2 1.5.9.5-1.3.9-5.6 1-5.2.1-6.2.3-4 .9l3 .7-3 .8c-2.6.7-2.7.9-1 1.6 1.6.6 1.3.8-1.5.9l-3.5.2 3 .8c1.7.4 7.4.8 12.8.9 5.7.1 9.7.5 9.7 1.1 0 .5.8 1.1 1.8 1.1.9.1.1.5-1.8.9l-3.5.7 3 .3 3 .2-3 .8c-2.4.6-2.6.8-.7.9 3.4.2 2.6 2.1-1 2.2l-3.3.2 3.5.7 3.5.7-4 .3c-3.9.3-3.9.3-.7.7 3.8.5 3.3 2.2-.6 2.4-2.4.1-2.3.3.8.9l3.5.7-4.5.3-4.5.3 4 .7c2.2.4 3.4.8 2.8.9-.7 0-1.3.8-1.3 1.6 0 1.1-1.2 1.5-4.2 1.7-4.3.1-4.3.1-.7.5 3.1.3 3.6.7 3.2 2.4-.4 1.4-1.5 1.9-4.2 2l-3.6.2 4 .7c2.2.4 3.2.8 2.3.9-1.1 0-1.5.6-1.2 1.6.5 1.1-.2 1.5-2.7 1.6l-3.4.2 3.5.7 3.5.7-4 .3c-3.9.3-3.9.3-.7.7 4 .5 3.2 2.3-1.1 2.4l-3.2.2 3.5.7 3.5.7-4 .3-4 .3 3.5.7 3.5.7-3.5.8c-3.4.8-3.4.9-1 1.6 2 .6 1.7.7-2 1l-4.5.2 4.5.7 4.5.7-3.7.1c-4.4.2-5.1 1.9-1 2.5 1.9.3 1.6.4-1 .4-2.1-.1-4 .2-4.4.6-.4.4-.2.7.5.7s.3 1-.9 2.2c-1.1 1.3-2.3 3.3-2.6 4.5-.4 1.3-1 2.3-1.6 2.3-.5 0-.6.5-.3 1 .3.6.1 1-.5 1s-.9.4-.6.8c.3.5-.3 1.8-1.4 3-1.4 1.4-1.6 2.2-.7 2.5.9.4.9.6 0 .6-.7.1-1.3.8-1.3 1.6s-.8 1.5-1.7 1.6c-1.1 0-1.3.3-.6.6 1 .4 1 .9.1 2.6-.7 1.2-1.1 2.5-1 2.9.1.5-.2.8-.6.8-.4 0-.8 1-.9 2.2-.1 1.1-.6 2.4-1 2.7-.4.3-1 1.5-1.1 2.6-.2 1.1-.7 2.1-1.1 2.3-.5.1-.6 1.4-.3 2.7.2 1.4 0 2.5-.5 2.5-.8 0-1.2 1.5-1.5 5.7-.1.7-.4 1.3-.8 1.3s-.6 1.1-.5 2.5c.2 1.4-.1 2.5-.6 2.5-.6 0-.7.4-.4 1 .6.9-15.5 1.6-25.2 1-5.3-.3-6.4 1.4-1.3 2.1l4.5.6-5.5.3-5.5.3 5 .7 5 .7-5.2.1c-3.8.2-5.3.6-5.3 1.6 0 .8-.6 1.7-1.3 1.9-.6.3 100.1.5 223.8.4 123.8 0 220.1-.4 214-.7l-11-.6 8-.3 8-.3-5-1.3-5-1.3 7.5-.3c7.2-.3 7-.3-3.5-.9l-11-.6 8-.3c5.7-.2 7.3-.5 5.5-1.1-1.6-.5 1.1-.9 8-1 5.8-.1 13-.5 16-1 5.4-.7 5.3-.7-3.5-1l-9-.4 7.5-.6c5.4-.5 6.2-.7 3.1-.8-4.2-.2-4.3-.3-2.5-1.7 1.7-1.3 1.4-1.5-4.1-1.7-5.9-.2-5.9-.2 2-.8l8-.6-6.5-.4-6.5-.3 4.7-.6c7.6-1.1 6.8-2.1-1.8-2.3-7.3-.2-7-.2 3.6-.8l11.5-.6-12-.4c-6.7-.2-9.7-.5-6.7-.7 6-.5 7-2.2 1.5-2.5-2.1-.1.3-.5 5.2-.8l9-.6-9.5-.4c-7.6-.2-8.7-.4-5.5-1 2.2-.4 3-.8 1.8-.9-4.6-.3-3.2-2 1.9-2.4l5.3-.3-6-.4c-5.8-.3-5.9-.3-2-1l4-.7-4.2-.2c-5.3-.1-5.7-1.8-.6-2.4 3.5-.3 3.4-.4-1.2-.7-4.4-.3-4.1-.4 3-1l8-.6-7.5-.2c-5.8-.2-7.1-.5-5.7-1.3 1-.6 2.9-.8 4.2-.5 1.3.3 2.7.2 3-.4.4-.6-2.1-1.1-6.7-1.2l-7.3-.2 9-.6 9-.6-9-.2c-5.6-.2-8.5-.6-7.6-1.1.7-.5 1-1.4.7-2-.5-.8 1.8-1.2 7.6-1.3l8.3-.2-9-.6-9-.6 9-.3c6-.2 8.3-.5 7-1.1-1.1-.4-3.7-.6-5.7-.3s-5 .2-6.5-.3c-2.2-.7-.9-1 6.2-1.4l9-.6-9.5-.4-9.5-.4 10-.6 10-.6-9.3-.2c-11.9-.3-11.4-2.1.6-2.4l8.7-.2-9.5-.6-9.5-.6 10.5-.4 10.5-.4-10-.6c-8.4-.4-9.5-.7-7-1.5 2.9-1 2.8-1-2.5-1.6-4.1-.4-2.2-.7 7.5-.9l13-.4-13.5-.6c-7.4-.3-11.1-.7-8.2-.8 7-.3 6.6-2.1-.5-2.4-3.2-.1.5-.5 8.2-.8l14-.6-14.5-.4c-11.6-.3-13.2-.5-8-1 6-.5 6.2-.6 3.5-1.5-2.5-.8-1-1.1 8-1.6l11-.5-15.5-.4c-13.8-.3-14.6-.4-7.5-1 4.4-.3 6.3-.7 4.3-.8-5-.3-5.7-2-1.1-2.5 2.1-.2 0-.5-4.7-.7l-8.5-.4 9.5-.6 9.5-.6-8.5-.3c-8.1-.3-8.3-.4-3.7-1.1 7.1-1.2 6.9-2-.4-2.2-6-.2-5.8-.2 2.6-.8l9-.6-9.5-.4c-6.9-.3-8-.5-4.2-.7 7.2-.5 6.5-2.3-1-2.5-5.1-.1-4.4-.3 3.7-.8l10-.6-10.5-.4-10.5-.4 8-.6c5.2-.4 6.6-.7 4-.9-8.6-.6-9.2-1.9-1-2.2l8-.3-10-.6-10-.6 9-.4c8.3-.4 8.5-.4 2.8-.7-7.9-.5-8.3-2.2-.5-2.5 5.3-.2 5.2-.2-2.3-.8l-8-.6 8-.4 8-.4-7.5-.6c-4.1-.4-6.3-.7-4.8-.8 4.6-.3 4.3-2.2-.4-2.4-3.2-.1-2.6-.3 2.7-.8l7-.6-7-.4c-4-.2-5.6-.5-3.7-.7 1.7-.2 3.2-.8 3.2-1.4 0-.5-5.8-1-13.2-1.1-13.2-.2-13.2-.2-4.3-.8l9-.6-9.3-.2c-6.5-.1-9.1-.5-8.6-1.3.3-.6 0-1.5-.7-2-.9-.5 1.6-.9 6.6-1 6.6-.2 7.3-.3 4-.9-2.2-.4-3.3-.8-2.5-.9 1.2-.1 1.1-.4-.4-1.2-1.5-.9-1.6-1.3-.5-2 1-.6.5-.9-1.5-.9-1.6 0-2.7-.3-2.3-.6.7-.7-2.9-4.3-4.5-4.6-.7-.1 2.5-.5 7.2-.8l8.5-.6-8.7-.2c-6.8-.2-8.8-.5-8.8-1.6 0-2 6.2-2.8 7.6-1 1.3 1.7 4.1 1.8 4.6.3.3-.8 5.9-1.4 16.3-1.9l16-.7-14-.3c-9.3-.2-12.3-.5-9-.9 5.5-.7 4.2-1.9-2.3-2.3-2-.1 1.9-.5 8.8-.8 6.9-.3-13.8-.8-46-.9-32.2-.2-56.5-.7-54-1.1 2.9-.4 3.5-.8 1.8-.8-1.5-.1-2.9-.6-3.2-1.1-.6-.8 4-1.8 12.7-2.7 4.6-.4 6.3-1.4 2.4-1.4-3.1 0-4.5-1.7-2-2.3 1-.3.2-.6-1.7-.7l-3.5-.3 3.5-.7 3.5-.7-4-.2c-2.2-.2-3.4-.5-2.8-.8 2.1-.8 1.5-2.3-.9-2.4-2.2-.1-2.2-.1.2-.9 1.7-.5 1.9-.8.8-.9-2.4-.1-6.1-3.8-4.5-4.5.7-.2.4-.5-.5-.5-2-.1-5.9-3.6-5-4.5.3-.3-.8-.6-2.4-.7-2.5 0-2.6-.2-.9-.8 1.9-.8 1.9-.8-.3-1.5-1.2-.4-2-1.2-1.7-1.7.4-.5.1-.9-.5-.9s-.8-.5-.5-1c.3-.6 0-1-.7-1-.8 0-2.1-.9-3.1-2-1.7-2-1.6-2 30.1-2l31.7-.1-2.7-2.4c-2.4-2-2.5-2.4-1-2.8 1.2-.3 1-.5-.6-.6-1.3 0-2.1-.5-1.8-1 .3-.5-.2-1.2-1.1-1.5-1.5-.6-1.5-.8-.3-1.6 1.3-.8 1.2-1-.3-1-1 0-1.5-.4-1.2-1 .3-.5.1-1-.4-1-.6 0-1.1-.7-1.1-1.5s-.6-1.5-1.2-1.5c-.9 0-.8-.4.2-1 1.3-.8 1.2-1-.2-1-1.6 0-2.3-1.7-1.9-4.3 0-.4-.4-.7-.9-.7-.6 0-1-.7-1-1.5s-.5-1.5-1.1-1.5c-.5 0-.8-.4-.5-.9.4-.5.1-1.1-.4-1.3-.6-.2-1.2-1.3-1.3-2.6 0-1.2-.5-2.2-1-2.2-.4 0-.5-.4-.2-1 .6-.9-.8-1.5-2.9-1.1-.5.1-.4-.5.4-1.3 1-1.4 1-1.6-.6-1.7-1.4-.1-1.3-.3.6-.9 1.6-.5 1.9-.8.8-.9-.9-.1-2.1-.7-2.5-1.5-.4-.7-1.5-1.6-2.3-1.9-1.1-.4-1-.6.5-.6 1.2-.1 1.6-.4.8-.9-.6-.4-1.3-1.6-1.5-2.7-.1-1.1-.7-2.3-1.1-2.6-.4-.3-.9-1.6-1-2.7-.1-1.2-.5-2.2-1-2.2-.4 0-.6-.4-.2-.9.3-.5.1-1.2-.4-1.6-.5-.3-.8-1.4-.6-2.5.2-1.1-.1-2-.7-2-.5 0-.8-.6-.5-1.4.3-.8.1-1.7-.6-2-.9-.3-.8-.5.1-.5.7-.1 1-.6.7-1.1-.3-.6-3.1-1-6.1-1-3 0-5.4-.5-5.4-1 0-.6 1.5-1 3.4-1 1.8 0 4.8-.3 6.7-.7 2.8-.5 3-.7 1.4-1.4-2-.7-2-.8 0-.9l2-.1-2-.9c-1.9-.8-1.9-.9.4-1.6 2.3-.7 2.4-.8.5-1.5-1.7-.7-1.7-.8.4-.8 1.3-.1 2.1-.5 1.8-.9-.8-1.3-5.1-.6-4.9.7.2.6-.4 1.1-1.2 1.1-.8 0-1.4-.3-1.4-.8.1-.4 0-1-.1-1.5-.6-1.9-.5-3.3.5-3.9.6-.5.6-.8-.2-.8-.9 0-1-.7-.3-2.5s.6-2.5-.3-2.5c-.8 0-.8-.3.2-.9.7-.5 1.1-1.3.7-1.9-.3-.6 0-1.3.6-1.5 1-.4 1-.6.1-.6-.9-.1-1-.8-.4-2.4.4-1.2.7-3.7.6-5.5 0-2.3.4-3.2 1.5-3.2 1.4 0 1.7 1.2 1.6 7.7-.1 4.3-.5 8.1-1.1 8.5-.6.5-.5.8.3.8.7 0 1.1.4.7.9-.3.6.3 1.5 1.2 2.1 1.7 1 1.7 1-.2.8-1.4-.2-2 .3-2 1.7s.7 2 2.3 2.1c2.6.1 3-1.3.5-1.9-1.4-.4-1.3-.5.4-.6 1.7-.1 2.1-.6 1.8-2.6-.1-1.4.1-2.5.5-2.5.5 0 .7-1.1.5-2.5-.1-1.4.3-2.5.9-2.5.6 0 .4-.5-.4-1-.9-.6-1.1-1-.3-1 .7 0 1-.7.7-1.5-.4-.9 0-1.5.7-1.5 1.1 0 1.1-.3-.1-1-.8-.5-1-1-.3-1 .6 0 1-1.1.8-2.5-.1-1.4.1-2.5.5-2.5s.7-1 .6-2.3c-.1-1.2.3-2.5.9-2.9.6-.5.6-.8-.2-.8-.9 0-1-.7-.4-2.3.4-1.2.7-3.7.6-5.5-.1-1.7.2-3.2.5-3.2.4 0 .6-2.2.6-5-.1-2.8.2-5 .7-5 .4 0 .5-.5.2-1-.3-.6-3.1-1-6.1-1-4.1 0-5.4-.4-5.4-1.5 0-.8.8-1.5 1.8-1.6 1.4 0 1.4-.2-.3-.9-1.1-.5-1.4-.9-.7-.9.7-.1 1-.6.7-1.1-.3-.6.1-1.3.9-1.6.9-.3 1.3-1 1-1.5-.3-.5 0-.9.6-.9s.8-.5.5-1c-.4-.6 1.4-1 4.4-1.1 4.7-.1 5.8-.3 7.9-.9.4-.1-.4-.6-1.8-1-2.5-.8-2.5-.8.5-1 3-.2 3-.2.5-1-2.4-.8-2.4-.8-.2-.9 2.4-.1 3-1.6 1-2.4-.7-.3-.2-.6 1.2-.7 2.3-.1 2.3-.2.5-1-1.1-.5-1.4-.9-.6-.9.7-.1 1.1-.7.7-1.6-.3-1 .1-1.5 1.2-1.6 1.4 0 1.4-.2-.3-.9-1.9-.8-1.9-.9.2-.9 1.6-.1 2.1-.6 1.7-1.6-.4-.9 0-1.5.7-1.6.8-.1.3-.5-1.1-.9-2.3-.7-2.2-.8 1-1 2.9-.1 3.1-.3 1.5-1-2-.8-2-.8-.1-1.6 1.9-.7 1.9-.8 0-1.5-1.7-.7-1.6-.8.6-.8 1.8-.1 2.1-.4 1.1-1s-1-1-.1-1.6c.9-.6.9-1-.1-1.6-1.1-.7-.9-.9.6-.9 1.7 0 1.7-.2.5-1-1.2-.7-1.2-1-.1-1 .7 0 1.1-.6.7-1.5-.3-.8 0-1.5.7-1.5.8 0 .6-.4-.3-1-.9-.6-1.1-1-.3-1 .7 0 1-.6.7-1.4-.4-1 .5-1.3 4.1-1.2 3.2 0 4.4.4 4 1.3-.3 1 2.2 1.3 11.1 1.3 6.4 0 11.3-.4 11-.9-.3-.5.9-1.2 2.7-1.6 3.2-.7 3.2-.7.7-1.5l-2.5-.8 2.6-.1c1.7-.1 2.8-.8 3.2-2 .4-1.6-.1-2.1-2.7-2.4-2.9-.4-2.9-.4.6-.5 3.6-.2 3.7-.3 2.8-2.7-.5-1.4-.6-2.5-.2-2.5.4 0 .7-1.5.6-3.2l-.1-3.3-11-.3c-8.3-.2-11.4-.6-12.3-1.7-1.1-1.3.3-1.5 10.4-1.5H419l-.2-3c-.1-1.7-.6-3-1-3s-.7-.3-.6-.8c.1-.4-.3-1.7-1-3-.7-1.2-1-2.2-.7-2.2.3 0-.1-1-1-2.3-.8-1.3-1.2-2.7-.8-3 .3-.4.1-.7-.5-.7-.7 0-1.2-.7-1.2-1.5s-.6-1.5-1.2-1.5c-.9 0-.8-.4.2-1s1.1-1 .3-1c-.7 0-2.2-.9-3.3-2-1.1-1.1-1.8-2-1.5-2 .3 0-.8-1.4-2.5-3-1.7-1.7-3.6-3-4.3-3-.7 0-.6-.4.3-1 1.3-.8 1.3-1-.1-1-2.4 0-6.3-3.7-4.7-4.3.9-.4.9-.6-.2-.6-2.2-.1-5.2-3.8-3.7-4.5.7-.2.5-.5-.4-.5-1.6-.1-3.4-2.7-3.1-4.4.1-.4-.3-.7-.9-.7-.5 0-.8-.4-.5-.9.4-.5.2-1.1-.3-1.3-.5-.1-1.1-1.2-1.3-2.3-.1-1-1.1-2.8-2.2-3.8-1.5-1.6-1.6-2.1-.5-2.8 1.1-.7 1-.9-.3-.9-1 0-1.8-.7-1.8-1.5s-.5-1.5-1.2-1.5c-.6 0-.9-.3-.5-.6.3-.3-.3-1.5-1.3-2.7-1.1-1.1-1.7-2.4-1.4-2.9.3-.4-.2-.8-1.1-.8-.9 0-1.3-.5-1-1 .3-.6-.1-1.3-.9-1.6-.9-.3-1.3-1-1-1.5.3-.5-.2-.9-1.1-.9-.9 0-1.3-.5-1-1 .3-.6-.1-1-1-1-.8 0-1.8-.7-2.1-1.5-.4-.8-1.4-1.5-2.3-1.5-1.4 0-1.4-.2-.1-1 1.2-.8 1.1-1-.8-1-1.2 0-2.5-.7-2.8-1.5-.4-.8-1.3-1.5-2.1-1.5s-1.1-.5-.8-1c.3-.6.1-1-.5-1-1.7 0-6.1-3.6-5.3-4.4.3-.3-.3-.6-1.4-.6-1.2 0-2.3-.7-2.7-1.5-.3-.8-1.3-1.5-2.1-1.5-.9 0-1.3-.5-1-1 .3-.6-.1-1-1-1s-1.3-.5-1-1c.3-.6-.3-1-1.5-1-1.1 0-2.3-.7-2.6-1.5-.4-.8-1.4-1.5-2.3-1.5-1.4 0-1.4-.2-.1-1 1.2-.8.9-1-1.3-1-1.5 0-3-.7-3.3-1.5-.4-.8-1.4-1.6-2.3-1.7-.9-.2 37.3-.5 84.9-.8 47.6-.3-26.2-.5-164-.5C88.1.5 41.4.7 118 1zm159.3 20.7c-.7.2-1.9.2-2.5 0-.7-.3-.2-.5 1.2-.5s1.9.2 1.3.5zm18.4 1.9c-.3.3-1.2.4-1.9.1-.8-.3-.5-.6.6-.6 1.1-.1 1.7.2 1.3.5zm-18.4 3.1c-.7.2-1.9.2-2.5 0-.7-.3-.2-.5 1.2-.5s1.9.2 1.3.5zm18.4-.1c-.3.3-1.2.4-1.9.1-.8-.3-.5-.6.6-.6 1.1-.1 1.7.2 1.3.5zm26.6.1c-.7.2-1.9.2-2.5 0-.7-.3-.2-.5 1.2-.5s1.9.2 1.3.5zM279 29.5c0 1.1 1.3 1.5 4.8 1.7l4.7.1-5.5.7c-3 .4-4.9.7-4.3.8.9.2 1 .9.3 2.6-.8 2.2-.6 2.4 4.7 3.5 8.9 1.7 10 1.6 9.9-1.7-.1-2.6-.3-2.7-6.6-3.3l-6.5-.5 7-.2c4.9-.2 6.6-.5 5.5-1.2-1.1-.7-.8-1 1.6-1 2.8 0 3 .3 2.9 3.2 0 1.8.4 3.6 1 4 .6.5.6.8-.2.8-.9 0-1 .7-.4 2.2.4 1.3.7 4.9.7 8-.1 3.2.2 5.8.6 5.8.4 0 .5.7.2 1.5-.4.8-1.4 1.5-2.4 1.5s-2-.7-2.4-1.5c-.3-.8 0-1.5.7-1.5.8 0 .8-.3.2-.8-.6-.4-1-1.7-.9-3 .1-1.2-.2-2.2-.6-2.2-.4 0-.6-1-.5-2.3.2-1.9-.5-2.3-5.9-3.3-3.4-.6-6.6-1.3-7.2-1.5-.7-.2-1.2 0-1.2.5s-.6 1.3-1.4 1.7c-.7.5-.8.9-.3.9.6 0 1.1.9 1.1 2 0 1.5-.7 2-2.7 2-1.9 0-2.6-.5-2.5-1.8 0-.9.6-2 1.1-2.4.7-.5.6-.8 0-.8s-1.1-.9-1.1-2 .5-2 1.1-2c.5 0 .3-.5-.5-1s-1-1-.5-1c.6 0 1-2.2 1-5-.1-4.6.1-5 2.2-5 1.4 0 2.3.6 2.3 1.5zm16.7-.9c-.3.3-1.2.4-1.9.1-.8-.3-.5-.6.6-.6 1.1-.1 1.7.2 1.3.5zm25 0c-.3.3-1.2.4-1.9.1-.8-.3-.5-.6.6-.6 1.1-.1 1.7.2 1.3.5zm-2.4 5.1c-.7.2-1.9.2-2.5 0-.7-.3-.2-.5 1.2-.5s1.9.2 1.3.5zm7.3.3c-1.4.4-1.6.9-.8 1.4.7.4 1 1.2.7 1.7-.4.5.6.9 2.2 1 2.5 0 2.6.1.8.9-1.1.5-1.4.9-.6.9.7.1 1.1.7.7 1.6-.4 1 .1 1.5 1.7 1.6 2.1 0 2.1.1.2.9-1.8.8-1.8.9.5.9 1.8.1 2.1.4 1.1 1-.7.5-1 1.4-.7 2 .5.8-.4 1.1-3.1.9-7.6-.4-13.9.2-12.3 1.2 1 .6 1.1 1 .3 1-.7 0-1.3.7-1.3 1.5s-.4 1.5-1 1.5c-.5 0-.9.3-.9.7.4 2.4-.4 3.3-2.6 3.3-1.8 0-2.3-.4-1.9-1.5.4-.8 1.4-1.5 2.3-1.6.9 0 1.1-.3.5-.5-1.7-.7-.5-4.2 1.5-4.7.9-.3 0-.6-1.9-.7l-3.5-.3 3.5-.7 3.5-.7-2.5-1.1c-2.1-1-2.2-1.2-.5-1.1 4 .2 5.1-.2 3-1.1-1.3-.6-1.5-.9-.5-.9.8-.1 2.1-1 2.7-2 1.1-1.8.9-2-1.5-2.4-2.4-.4-2.4-.4.6-.6 1.9 0 3.1-.5 2.7-1.1-.3-.6-.1-1 .4-1 .6 0 1.1-.6 1.1-1.4 0-1 1.2-1.4 3.8-1.4 2.6 0 3.1.3 1.8.8zm21.9 5c-2.9.8-2.9.8 1 1 3.8.3 3.9.3.8.7-2 .3-3.3 1-3.3 1.9 0 .8-.7 1.4-1.7 1.4-.9 0-1.3-.3-1-.7.4-.3.2-1.2-.4-2-.9-1-.8-1.3.2-1.5.8 0-.8-.4-3.6-.8-4.5-.6-4.2-.7 3-.7 5.6-.1 7.1.2 5 .7zm15.3 4.7c-1 .2-2.8.2-4 0-1.3-.2-.5-.4 1.7-.4 2.2-.1 3.2.1 2.3.4zM347.3 47c.4 1.5 0 2-1.4 2-1.2 0-1.9-.7-1.9-2 0-1.1.6-2 1.4-2 .7 0 1.6.9 1.9 2zm12.4 0c-.1 1.1-.4 2-.8 2s-.9-.9-1.2-2c-.3-1.3 0-2 .8-2s1.3.9 1.2 2zm8.1-1.3c-1 .2-2.8.2-4 0-1.3-.2-.5-.4 1.7-.4 2.2-.1 3.2.1 2.3.4zM278.3 52c-.3 1.2-1.4 2-2.7 2-1.5 0-2.2-.6-2.2-2 0-1.5.7-2 2.7-2 2.2 0 2.6.4 2.2 2zm54.7-.6c0 .8.6 1.7 1.3 1.9.6.3 0 .6-1.4.6-1.9.1-2.8-.5-3.2-1.9-.4-1.5 0-2 1.4-2 1 0 1.9.6 1.9 1.4zm15 .6c0 1.1-.7 2-1.5 2s-1.5-.9-1.5-2 .7-2 1.5-2 1.5.9 1.5 2zm17.5 0c.6.5 2.1 1 3.5 1.3 1.4.3-.4.4-3.9.3-5.3-.2-6.5-.5-6.7-2-.2-1.4.3-1.6 2.9-1 1.8.3 3.7 1 4.2 1.4zm-87.8 3.6c-.3.3-1.2.4-1.9.1-.8-.3-.5-.6.6-.6 1.1-.1 1.7.2 1.3.5zm71.3 1.5c0 2.4-2.3 2.1-2.8-.4-.2-1 .3-1.7 1.2-1.7 1 0 1.6.9 1.6 2.1zm12.5.9c.3.5-.1 1-.9 1-.9 0-1.6-.5-1.6-1 0-.6.4-1 .9-1 .6 0 1.3.4 1.6 1zm3.8 2.7c-1.3.2-3.3.2-4.5 0-1.3-.2-.3-.4 2.2-.4s3.5.2 2.3.4zm7.1 2.2c1.4.5 1.6 1 .8 1.5-.7.4-1.8.4-2.4-.1-.7-.4-3.5-1-6.3-1.4l-5-.6 5.5-.1c3 0 6.4.3 7.4.7zm-87.7 46.7c-.3.3-1.2.4-1.9.1-.8-.3-.5-.6.6-.6 1.1-.1 1.7.2 1.3.5zm-126 2c-.3.3-1.2.4-1.9.1-.8-.3-.5-.6.6-.6 1.1-.1 1.7.2 1.3.5zm120.1 3.1c-1 .2-2.6.2-3.5 0-1-.3-.2-.5 1.7-.5s2.7.2 1.8.5zm-3.5 2c-.7.2-1.9.2-2.5 0-.7-.3-.2-.5 1.2-.5s1.9.2 1.3.5zm11 1.3c-1 1.1-2.9 2-4.3 1.9-1.5 0-1.9-.3-1-.6.8-.4 2.1-1.2 2.8-2 .7-.7 2-1.3 2.8-1.3 1.1 0 1 .4-.3 2zm29 1.7c-1.3.2-3.3.2-4.5 0-1.3-.2-.3-.4 2.2-.4s3.5.2 2.3.4zm-71.7 3c-.2 1-1.1 2-2 2.1-1.5.3-1.6.1-.4-1.7 1.6-2.6 2.7-2.7 2.4-.4zm38.6-1c-1.2.2-2 .8-1.7 1.3.3.5-.8 1.1-2.5 1.5-1.7.4-2.8 1.1-2.4 1.6.3.5-3.1.8-8.3.7l-8.8-.2 8-.6c4.4-.3 7.3-.7 6.5-.8-3-.4 4.5-4.2 8-4.1 2.4.1 2.8.3 1.2.6zm33.1 0c-1.3.2-3.3.2-4.5 0-1.3-.2-.3-.4 2.2-.4s3.5.2 2.3.4zm-73.6 4.9c-.3.3-1.2.4-1.9.1-.8-.3-.5-.6.6-.6 1.1-.1 1.7.2 1.3.5zm144.6.1c-.7.2-2.1.2-3 0-1-.3-.4-.5 1.2-.5 1.7 0 2.4.2 1.8.5zm-144.6 1.9c-.3.3-1.2.4-1.9.1-.8-.3-.5-.6.6-.6 1.1-.1 1.7.2 1.3.5zm22 0c-.3.3-1.2.4-1.9.1-.8-.3-.5-.6.6-.6 1.1-.1 1.7.2 1.3.5zm7 1c-.3.3-1.2.4-1.9.1-.8-.3-.5-.6.6-.6 1.1-.1 1.7.2 1.3.5zm-77 2c-.3.3-1.2.4-1.9.1-.8-.3-.5-.6.6-.6 1.1-.1 1.7.2 1.3.5zm81.6.1c-1.3.2-3.3.2-4.5 0-1.3-.2-.3-.4 2.2-.4s3.5.2 2.3.4zm14.5 0c-1 .2-2.8.2-4 0-1.3-.2-.5-.4 1.7-.4 2.2-.1 3.2.1 2.3.4zm19 0c-1.6.2-4 .2-5.5 0-1.6-.2-.3-.4 2.7-.4s4.3.2 2.8.4zm97 0c-4.2.2-11.4.2-16 0-4.6-.1-1.1-.3 7.7-.3s12.5.2 8.3.3zm-129.8 2c-10.3.8-6.4 1.8 9 2.3 16.1.6 15.9.6-7 .7-12.9 0-22.1-.3-20.5-.7 1.7-.4 2.6-.8 2-.9-.5-.1-.3-.6.5-1.1.8-.5 5.8-.9 11-.8 5.2.1 7.5.3 5 .5zm8.5.3c1.9.8 1.9.9-.2.9-1.2.1-2.5-.4-2.8-.9-.7-1.2.2-1.2 3 0zm54.5 0c0 .5-.5 1-1.1 1-.5 0-.7-.5-.4-1 .3-.6.8-1 1.1-1 .2 0 .4.4.4 1zm58.3-.3c-.7.2-2.1.2-3 0-1-.3-.4-.5 1.2-.5 1.7 0 2.4.2 1.8.5zm4.4-.1c-.3.3-1.2.4-1.9.1-.8-.3-.5-.6.6-.6 1.1-.1 1.7.2 1.3.5zm-208.4 3.1c-1.8.2-4.8.2-6.5 0-1.8-.2-.4-.4 3.2-.4s5 .2 3.3.4zm124.4-.1c-.3.3-1.2.4-1.9.1-.8-.3-.5-.6.6-.6 1.1-.1 1.7.2 1.3.5zm20.6.1c-.7.2-1.9.2-2.5 0-.7-.3-.2-.5 1.2-.5s1.9.2 1.3.5zm-141.9 2.5c-.4.6 0 1.4.7 1.9.9.5-1.1.9-5.3.9-5.8 0-6.6-.2-6.3-1.8.4-2.1-.5-1.8 6-1.9 3.6-.1 5.3.2 4.9.9zm65.9-.5c-.7.2-1.9.2-2.5 0-.7-.3-.2-.5 1.2-.5s1.9.2 1.3.5zm17 0c-2.6 1-1.2 2.3 2.5 2.4 3.6.1 3.6.2.7.8-2.3.5-1.3.8 4.6 1.4 4.2.3 8.9 1.1 10.5 1.7 1.6.7 6.6.9 12.1.6 5.1-.2 9.5-.1 9.8.4.3.5-.9 1.1-2.7 1.3-1.8.2.1.4 4.2.5 5.2.1 7-.1 6-.8-1.3-.8-1.2-1 .3-1 .9 0 1.7-.7 1.7-1.5 0-1.1 1-1.5 3.8-1.4 2 .1 2.9.3 1.9.6-.9.2-1.5.9-1.1 1.4.3.5-.2 1.2-1 1.5-.9.3-1.3 1-1 1.5.3.5-.2.9-1.1.9-.9 0-1.4.4-1 .9.3.5-.4 1.3-1.6 1.6-1.7.6-1.9.9-.8 1.6.9.6-.3.9-3.6 1l-5 .1 4.9.9c2.8.4 5.3.6 5.7.3.4-.2 1 0 1.4.6.3.5.1 1-.5 1s-.8.4-.5 1c.4.6-2.1 1.1-6.7 1.2l-7.3.2 6.3.3c4.6.3 6.2.8 6.2 1.8 0 .8-.4 1.5-1 1.5-.5 0-1-.5-1-1 0-.6-.4-1-1-1-.5 0-1 .7-1 1.5 0 1.1-1.3 1.5-4.7 1.6l-4.8.2 4 .7c2.2.4 3.2.8 2.2.9-1 0-1.6.5-1.2 1 .3.5-.4 1.3-1.6 1.6-1.1.4-1.8.9-1.5 1.2.2.3-.3 1.3-1.2 2.3-1.2 1.3-3.6 2-7.7 2.3-3.9.2-2.5.4 4 .4 6.8.1 9.3-.1 7.8-.7-1.3-.5-2.3-1.1-2.3-1.2 0-.2 2.1-.4 4.8-.4 10.2-.3 11.3-.4 10.7-1.4-.8-1.4 1.5-1.3 5.6.2l3.4 1.3-5.8.5c-3.1.3-5.7.9-5.7 1.5.1.5-.9 1.3-2.2 1.7l-2.3.6 2.3.1c3.2.1 1.7 2.1-1.6 2.2l-2.7.1 2.5.8c2.3.7 2.3.8-.9.9-5.4.2-2.8 1.3 3.1 1.4 2.9 0 4.7.2 4.1.4-3.2 1.1-.7 2.3 5 2.5 6.1.1 6.2.1 1.7.8l-4.5.7 3.8.1 3.9.2-.6 4c-.3 2.2-1.1 5-1.7 6.3-.7 1.2-1.2 2.3-1.1 2.4.1.2.2 1 .2 1.8 0 2.1-12.8 2.1-15.6 0-1-.8-3.6-1.5-5.7-1.5-2.3 0-3.6-.4-3.2-1 .4-.6-.6-1-2.2-1-1.5 0-4.1-.7-5.7-1.5-1.5-.8-3.5-1.5-4.3-1.5-.8 0-1.1-.5-.8-1 .4-.6-.5-1-2-1s-2.4-.4-2-1c.4-.6-1.1-1-3.7-1-7.4 0-15.1-1.2-13.6-2.1.8-.6-.4-.9-3.2-.9-2.8 0-4-.3-3.2-.9 1.4-.8-10-2.1-19.4-2.1-2.9 0-5.6-.5-5.9-1-.3-.6-3.4-1-6.8-1.1-4.4 0-5.6-.3-4.2-.9 1.5-.7.8-.9-3-1.1-2.7-.1-6.1-.1-7.3 0-1.5.1-2.1-.2-1.7-.9.3-.5-.1-1.3-.9-1.6-.9-.3-1.4-.9-1.2-1.3.3-.4-1-1.3-2.7-2.1l-3.2-1.5 4.5-.3c2.5-.1 5.2-.5 6-.8 1.3-.4 1.3-.6 0-1.4-1.2-.8-1.1-1 .5-1 1.1 0 1.6-.4 1-.8-1.5-1.1-1.2-3.6.5-4.4 1.3-.6 1.3-.7 0-.7-.9-.1-1.6-1-1.6-2.1 0-1.8.8-2 7.6-2.2l7.5-.2-8-.6c-7.5-.6-7.7-.6-2.2-.8 3.9-.1 5.6-.6 5.1-1.3-.3-.6-1.5-.9-2.5-.6-1.1.3-1.7.1-1.3-.4.3-.5 1.3-1 2.2-1 .9-.1.1-.5-1.8-.9-2.8-.6-2-.8 4-.9 5-.1 7-.4 6-1-.8-.6-1.7-.8-2.1-.5-.4.2-1 0-1.3-.5-.3-.5.8-.8 2.4-.7 1.7.1 3-.1 3-.6 0-.4-2.6-.9-5.7-1l-5.8-.2 5.3-.3c5.7-.4 9.6 1.2 7 2.9-1 .6-1 1 .2 1.8 1.1.7 0 1-3.9 1-3 0-5.2.3-4.9.6.6.5 15.5.7 20.8.3 1.4-.1-.4-.5-4-.9l-6.5-.7 8.3-.1c4.9-.1 8.2.2 8.2.8 0 .5 1.2 1 2.8.9l2.7-.1-2.5-.8c-1.9-.6-.9-.9 4-1.1 5.6-.2 5.9-.3 2-.6-2.5-.3-4.9-.9-5.5-1.5-.7-.7-.7-.9 0-.6.6.3 1.9.2 3-.3 1.9-.7 1.9-.8-.3-.8-1.3-.1-2.1-.5-1.8-1 .3-.5-.1-1.2-1-1.5-.8-.3-1.2-1-.9-1.6.3-.5 0-1.1-.7-1.1-.7-.1.1-.5 1.7-.9l3-.8-3.5-.2c-1.9-.1-2.7-.4-1.7-.7.9-.2 1.7-1.1 1.7-1.9 0-1.1 1.4-1.4 5.8-1.3 3.1 0 5.1.3 4.5.6zm12.7 0c-2.4.3-4.8 1-5.2 1.6-.6.9-.8.9-.8 0 0-.6-1.2-1.4-2.7-1.6-1.6-.2.8-.4 5.2-.4s6 .2 3.5.4zm23 0c-.8.3-1.8 1-2.1 1.6-.4.5-2.5 1.1-4.8 1.3-3.6.3-4 .1-2.8-1 1.4-1.5 4.4-2.3 8.7-2.4 1.5 0 1.9.2 1 .5zm22.7 0c-1.1.3-1.6 1.1-1.3 1.9.4 1-.3 1.4-2.4 1.4-2.9 0-2.9-.1-1.3-2 1-1.1 2.9-1.9 4.3-1.9 1.8.1 2 .3.7.6zm4.4 2.6c-1 .9-1.1.8-.5-.6.3-1 .9-1.5 1.2-1.2.3.3 0 1.1-.7 1.8zm-20.8.4c-1.3.2-3.3.2-4.5 0-1.3-.2-.3-.4 2.2-.4s3.5.2 2.3.4zm6 0c-.7.2-1.9.2-2.5 0-.7-.3-.2-.5 1.2-.5s1.9.2 1.3.5zm-130.1 2c-1 .4-1 .8-.1 1.9 1 1.2.1 1.4-5.8 1.4-6.2 0-6.9-.2-6.9-2s.7-2 7.1-1.9c3.8 0 6.4.3 5.7.6zm110.1 0c-1.8.2-4.8.2-6.5 0-1.8-.2-.4-.4 3.2-.4s5 .2 3.3.4zm14.5 0c-2.1.2-5.5.2-7.5 0-2.1-.2-.4-.4 3.7-.4 4.1 0 5.8.2 3.8.4zm19.9-.1c-.3.3-1.2.4-1.9.1-.8-.3-.5-.6.6-.6 1.1-.1 1.7.2 1.3.5zm-1.2 2.4c-.3.5-1.1 1-1.6 1-.6 0-.7-.5-.4-1 .3-.6 1.1-1 1.6-1 .6 0 .7.4.4 1zm-144 3l-3 .8 2.8.1c3 .1 3.7 1.7 1 2.4-1.3.3-1.1.5.7.7 2.4.2 2.4.3-.5 1l-3 .8 2.9.1c2.3.1 2.6.4 1.7 1.5-.9 1.1-.9 1.5.1 1.9.7.3-1.5.6-5 .6-3.7.1-6.1-.3-5.7-.8.3-.5 0-1.3-.7-1.8-.9-.5.1-1 2.7-1.4l4-.6-4.5-.3-4.5-.3 4-.7 4-.7-3.7-.2c-5.3-.2-5.8-2.1-.6-2.3l4.3-.1-5-.7c-4.5-.6-4.2-.7 3-.7 5.6-.1 7.1.2 5 .7zm142.5 0c-.8.5-1 1-.5 1 .6 0 .3.5-.5 1-2.4 1.6-3.1 1.2-1.8-1 .7-1.1 2-2 2.8-2 1.3 0 1.3.1 0 1zm-100 2c0 .5-1.2 1-2.6 1-1.4 0-2.3-.4-1.9-1 .3-.6 1.5-1 2.6-1 1 0 1.9.4 1.9 1zm21.5 0c1.5.6.7.9-2.8.8-2.9-.1-4.3-.4-3.5-.9 1.6-1.1 3.7-1 6.3.1zm-82.2 2.7c-.7.2-1.9.2-2.5 0-.7-.3-.2-.5 1.2-.5s1.9.2 1.3.5zM177 157c0 .5 1 1 2.3 1.1 2.1 0 2.1.1.2.9-1.7.7-1.7.9-.2.9.9.1 1.7.8 1.7 1.6 0 .9.9 1.5 2.3 1.6 2.1 0 2.1.1.2.9-1.4.6.3.8 5 .8 6.4-.1 6.6-.2 2.5-.8-2.5-.4-3.5-.8-2.2-.8 2.4-.2 3-1.7 1-2.5-.7-.3 1.3-.6 4.6-.6 4.8-.1 5.7.2 5.2 1.4-.3.8 0 1.5.7 1.6.7 0 .3.4-.8.9-1.4.6-1.5.9-.5.9 1.8.1 2.5 4.1.7 4.1-.8 0-.8.3-.2.8 2.4 1.7 1.4 3.2-2.3 3.2-2.7 0-3.3-.3-2.2-1 1.2-.7.8-1-1.4-1-2.4 0-2.7.2-1.6 1.5 1 1.3.9 1.5-1.1 1.7-1.3 0-.4.4 2.1.8 4 .6 3.6.7-3.5.9-4.4.2-7.4.5-6.7.8.6.2 1.2 1.1 1.2 1.9 0 1.1 1.9 1.4 8.3 1.6l8.2.2-8 .6c-4.4.3-7.4.7-6.7.8.6.1 1.2.9 1.2 1.7 0 1.2 1.5 1.5 7.3 1.5 5 0 6.7.3 5.7 1-1.3.8-1.2 1 .3 1s2.2 1.7 1.8 4.2c0 .5.3.8.8.8s.8 1.1.6 2.5c-.1 1.4.1 2.5.4 2.5.4 0 .6 1.5.6 3.2-.1 1.8.1 3.7.5 4.3.3.5.6 1.7.5 2.5-.1.8.2 2.5.7 3.7.5 1.6.4 2.3-.5 2.3-.8 0-.8.3-.2.8.6.4 1.1 1.6 1 2.7 0 1.1.5 2.3 1 2.7.6.5.4.8-.5.8-1.3 0-1.3.1 0 1s1.3 1.1 0 2c-1.3.9-1.3 1 0 1s1.3.1 0 1c-1 .6-1.1 1-.2 1 .6 0 1.2.7 1.2 1.5 0 .9.9 1.5 2.1 1.5 1.5 0 1.9-.5 1.5-1.5-.4-1 .1-1.5 1.6-1.5 1.6 0 1.8.3.9 1.4-1 1.1-.8 1.5.6 1.9 1 .3-.7.6-3.7.7-4.4.2-5 .4-3 1 1.4.4 1.9.8 1.2.9-1.8.1-.4 2.1 1.5 2.1.9 0 1.3-.6.9-1.5-.4-1.2.3-1.5 3.7-1.4 3.8.1 3.9.2 1.2.8-2.8.6-2.9.7-1 1.9 1.7 1 1.4 1.2-3 1.3-5 .2-4.9.3 1.5.9 3.6.4 5.2.7 3.5.9l-3 .2 2.5 1.4 2.5 1.4-2.5.2c-1.7.1-1.3.4 1.5.9l4 .7-3.5.2c-2.5.1-3.1.4-2.1 1 .8.5 2.1.7 3 .4.9-.2.5.2-.9 1l-2.5 1.5 3.5.5 3.5.4-4 .3-4 .2 4 .8c2.2.4 4.7.4 5.5-.1 1.1-.6 1.1-.8.2-.9-.7 0-1.1-.4-.7-.9.3-.5 0-1.3-.7-1.7-.8-.5-.6-1 .8-1.5 1.8-.7 1.8-.8-.1-.9l-2-.1 2-.9c1.7-.7 1.7-.9.3-.9-1-.1-1.8-.5-1.8-1s.8-1.2 1.8-1.4c1.2-.3 1-.5-.8-.7-2.4-.2-2.4-.3.5-1s3-.8.4-.9c-1.8-.1-2.8-.8-3.2-2.1-.4-1.6 0-2 2.1-2.1l2.7-.1-2.5-.7c-2.1-.5-2.5-1.2-2.7-4.9-.1-2.9.3-4.2 1-3.9.7.3 1.1 1 1 1.6-.2.6 1.3 1.2 3.5 1.2l3.7.2-4 .7c-2.2.4-3 .8-1.7.9 1.2 0 2.5.8 2.8 1.6.4.8 1.4 1.5 2.3 1.6 1.2 0 1.2.2-.4.9s-1 .9 2.5 1c4.1.2 4.2.3 1.5 1-2.6.6-2.7.8-1.2 1.5 1.5.6 1.6 1 .5 1.6-.8.6.5.9 3.7 1 4.1.1 4.5.2 2 .8-2 .4-2.6.9-1.7 1.4.7.5 1 1.3.7 1.8-.4.5 1.7 1 4.7 1 5.3.2 5.3.2 1.3.9-3 .5-3.6.8-2.3 1.4 1 .5 1.5 1.2 1.2 1.7-.3.5 1.9 1 4.8 1.1l5.3.1-4.5.5c-3.5.3-4.1.6-2.5 1.2 1.4.6.5.9-3.2.9-2.8.1-5.5.5-5.8 1.1-.4.6 3.8 1.1 11.7 1.2 9.6.1 11.1.3 6.8.8l-5.5.7 7 .3c6.1.3 6.4.4 2.2.7-2.6.2-4.5.8-4.2 1.4.8 1.2 37.2 1.2 38-.1.3-.5-2.3-1.1-6.2-1.3-5.3-.2-4.4-.4 3.6-.5 12.3-.2 13-1.5.9-1.5-4.8 0-6.3-.2-3.5-.4 3.8-.3 4.6-.7 3.8-1.7-.8-1 .5-1.2 6.1-1.1 10.3.3 12.7-.9 3.3-1.6l-8-.5 9.8-.2c5.5-.1 9.6-.6 9.3-1.1-.3-.5.2-1.3 1.2-1.7 1.2-.6-.1-1-4.3-1.4-5.7-.6-5.5-.7 3-.8 5-.1 8.5.2 8 .6-.6.4-1 2.2-1 3.9l.1 3.3h-5.8c-3.2 0-5.8.4-5.8 1 0 .5 2.4 1 5.3 1h5.3l-.3 4.2c-1.1 17.2-1.1 17.7.6 18.1.9.3-3.3.6-9.4.8l-11 .3 10.5.6c5.8.3 9.4.7 8 .8-2.4.3-2.4.3-.6 1.7 1.8 1.4 1.5 1.5-3.5 1.5-11.1 0-27.8-1.3-27.3-2.2.3-.4-1.1-.8-3-.8-4.2 0-4.9 2-.8 2.1l2.7.1-2.5.8c-2.3.7-2.2.8 1 .9 2.4.1 3.1.4 2.1 1-1.1.7-.8 1.1 1 1.7l2.4.8-2.5.7c-2.2.6-1.9.7 1.5.9 3.9.2 3.9.3 1 1l-3 .8 2.7.1c3.4.1 4.5 1.8 1.6 2.4-1.3.2-.4.6 2.2.7l4.5.3-5 .7-5 .7 4.4.1c3.4.2 4.2.5 3.7 1.7-.3 1 .1 1.6 1.2 1.7.9 0-.5.4-3.3.8l-5 .7 5.5.2c3.5.1 5 .4 4.1 1-1.1.7-1 1.1.5 2 1.6.8 1 1.1-3.1 1.2l-5 .2 5 .7c2.8.4 3.9.8 2.5.9-1.5.2-1.9.5-1 .8 4.2 1.4 4.3 1.7.5 2.3l-4 .7 4 .3 4 .3-3.5.7-3.5.7 3.3.2c1.7 0 3.2.5 3.2 1 0 .6-1.5 1.2-3.2 1.4-3.2.4-3.2.4.7.7l4 .3-5 .7-5 .7 4.9.1c4 .2 4.7.4 3.7 1.6-.9 1.1-.9 1.5.1 1.9.7.3-13.3.6-31.2.7-19.2.1-31.7.5-30.5 1 1.1.5 1.4.9.6.9-.7.1-1.1.7-.7 1.6.4 1.2-.5 1.5-4.2 1.7-2.6.2 10.6.5 29.3.8l34 .5-30.2.3c-26.4.2-30.2.4-29.7 1.7.5 1.2-.3 1.5-3.2 1.6l-3.9.2 3.5.7 3.5.7-3 .3c-2.5.2-2.6.3-.7.7 2.2.4 3.2 2.3 1.1 2.3-.5 0-.7.5-.4 1 .4.6-1.1 1.1-3.7 1.1l-4.3.2 4 .7c3.9.6 3.9.7 1.5 1.8l-2.5 1.1 2.5.2c1.4.1 0 .5-3 .9l-5.5.7 4.5.1c3.9.2 4.6.5 4.6 2.2 0 1.7-.8 2-5.6 2.2l-5.5.1 6 .7c3.5.4 4.7.8 3 .9-1.6.1-2.4.5-1.7.8 3.1 1.2.6 2.3-5.5 2.5l-6.8.1 6 .7c5.2.6 4.6.7-4.8.8-6 .1-10.6.6-10.3 1.1.8 1.2-5.9 1.8-13.9 1.1-7-.5-7-.6-2.8-1.4 2.4-.4 4.5-1.1 4.8-1.6.5-.9-4.3-2-8.7-2-1.7 0-2.7-.4-2.3-1 .4-.6-.6-1-2.2-1.1-2.4 0-2.5-.2-.8-.8 1.5-.6.9-.9-2.5-1.4-2.5-.3-4.6-1.1-4.8-1.6-.2-.6-1.6-1.2-3-1.3-1.5-.1.2-.4 3.8-.8l6.5-.7-8.2-.1c-5.7-.1-8.6-.6-9.7-1.7-.8-.8-2.3-1.5-3.3-1.6-1.6 0-1.6-.1.2-.9 1.6-.7 1.3-.9-1.6-.9-2-.1-4.2-.8-4.9-1.6-.7-.8-2-1.5-2.9-1.5-1.4 0-1.4-.2-.1-1 1.2-.8.8-1-1.5-1.1-2.9-.1-3-.1-.5-.9l2.5-.8-2.7-.1c-3.6-.1-5.9-1.1-5.2-2.2.3-.5-.5-1-1.8-1.1-1.3-.1 2-.5 7.2-.8l9.5-.6-10.2-.2c-6.9-.1-10.6-.6-11.5-1.5-.7-.8-2-1.6-2.8-2-.8-.3 14.9-.7 35-.8 20.1-.1 34.4-.4 31.8-.6-5.3-.4-6.6-2.7-2.5-4.3 1.8-.7 1.8-.9.4-.9-1-.1-1.6-.5-1.2-1 .9-1.5-1.2-2.2-4.2-1.4l-2.8.7 2.5.7 2.5.7-2.6.1c-2.9.1-5.5-2.2-4.4-3.9.3-.5 0-1.1-.7-1.2-.7-.1 1.6-.4 5.2-.8l6.5-.7-6.4-.1c-5.5-.2-6.2-.4-5.1-1.7 1-1.2 1-1.5-.1-1.7-.8-.1 1.5-.4 5.1-.8l6.5-.7-6.2-.1c-5.5-.2-6.2-.4-6-2.2.1-1.8.9-2 6.7-2.2 3.6 0 5-.3 3.3-.5-2.2-.3-3.3-1-3.4-2.1-.1-1.5-.2-1.5-.6 0-.3 1.1-1.4 1.8-2.9 1.8-1.4 0-2.3-.4-1.9-.9.3-.6-.3-1.4-1.2-2-1.4-.8 0-1.1 5.7-1.3l7.5-.2-8-.6c-5.9-.5-6.8-.7-3.5-.9 2.5-.1 3.8-.5 3-.8-4.3-1.4-4.4-1.6-1.5-2.3l3-.8-3-.2-3-.2 3-.8 3-.8-3.1-.1c-3-.1-3.1-.2-3.2-5.4-.2-6.4-.9-14.3-1.8-18-.6-2.6-.5-2.7 3.7-2.8 2.4-.1 3.4-.4 2.1-.6-1.9-.4-2.1-.7-1.1-1.9.9-1.1.8-1.4-.2-1.4-1.1 0-1.1-.2.1-1 .8-.5 1.1-1 .5-1.1-.5 0-3.4-.3-6.4-.5-8.3-.6-8.6-2.2-.7-2.8 4.1-.3 7.9-1.6 4.9-1.6-.6 0-1-1.1-.8-2.5.2-2.2-.2-2.5-2.9-2.6-2.9-.2-2.9-.2-.5-.6 2.1-.3 2.6-.9 2.2-2.4-.3-1-1.3-2-2.2-2-1.4-.1-1.4-.2.1-.6 1.8-.4 1.4-3.1-.6-4.5-.7-.5-.7-.8.2-.8.7 0 1.1-.4.8-.8-.3-.5-.8-2.4-1.1-4.3-.4-1.9-.8-3.9-.9-4.4-1.2-4.7-1.6-6.6-2-10.5-.6-6.1-.9-7.4-2.1-8.2-.6-.5-.5-.8.4-.8 1.1 0 1.1-.3.1-1.5s-1-1.5.1-1.5 1.1-.2-.1-1c-.8-.5-1-1-.5-1 1.4 0 1.4-4 0-4-.5 0-.3-.5.5-1s1-1 .4-1c-.7 0-1-1.3-.8-3l.4-3h-5.9c-4.3 0-6-.4-6.5-1.5-.3-.8 0-1.5.7-1.5.8 0 .8-.3.2-.8-.6-.4-1.1-2.4-1.1-4.5V173h5.2c2.9 0 5.6-.5 5.9-1 .3-.6.2-1-.3-1s-.9-1.6-.7-3.5c.1-1.9-.1-3.5-.5-3.5s-1-.9-1.3-2c-.4-1.4 0-2 1.1-2.1 1.4 0 1.5-.1.2-.7-2.3-1-2.3-3.2 0-3.2 1.1 0 2 .4 2 1zm161.3 1.7c-.7.2-1.9.2-2.5 0-.7-.3-.2-.5 1.2-.5s1.9.2 1.3.5zm7.4-.1c-.3.3-1.2.4-1.9.1-.8-.3-.5-.6.6-.6 1.1-.1 1.7.2 1.3.5zm-2.9 5.1c-1 .2-2.6.2-3.5 0-1-.3-.2-.5 1.7-.5s2.7.2 1.8.5zm-7 5c-1 .2-2.6.2-3.5 0-1-.3-.2-.5 1.7-.5s2.7.2 1.8.5zm-6 2c-1 .2-2.6.2-3.5 0-1-.3-.2-.5 1.7-.5s2.7.2 1.8.5zm-137.5 7c-1.3.2-3.5.2-5 0-1.6-.2-.5-.4 2.2-.4 2.8 0 4 .2 2.8.4zm25 3c-.7.2-1.9.2-2.5 0-.7-.3-.2-.5 1.2-.5s1.9.2 1.3.5zm121 0c-1.3.2-3.3.2-4.5 0-1.3-.2-.3-.4 2.2-.4s3.5.2 2.3.4zm-139.5 2c-1.5.2-4.2.2-6 0-1.8-.2-.6-.4 2.7-.4 3.3 0 4.8.2 3.3.4zm19.6.8c-.4.8-1.2 1.5-1.9 1.5s-1.5-.7-1.9-1.5c-.4-1.1.1-1.5 1.9-1.5 1.8 0 2.3.4 1.9 1.5zm9.3-.9c-.3.3-1.2.4-1.9.1-.8-.3-.5-.6.6-.6 1.1-.1 1.7.2 1.3.5zm1.4 3.1c.7 5.4.3 12.3-.7 12.3-.7 0-1.1 1.1-.9 2.5.2 2.1-.2 2.5-2.4 2.5-2 0-2.7-.5-2.7-2 0-1.3.7-2 2.1-2.1 1.7-.1 1.6-.2-.5-.9l-2.5-.8 2.5-.1c1.4-.1 2-.4 1.4-.9-1.4-.9-1.4-4.2 0-4.2.7 0 .7-.3.1-.8-1.4-1-1.5-4.2-.1-4.2.6 0 .4-.5-.4-1-1.2-.8-.9-1 1.3-1 1.5 0 2.7.3 2.8.7zm129.6 11.9c-.3.3-1.2.4-1.9.1-.8-.3-.5-.6.6-.6 1.1-.1 1.7.2 1.3.5zM227 206c0 1.4-.7 2-2.3 2-1.6 0-2.3-.6-2.3-2s.7-2 2.3-2c1.6 0 2.3.6 2.3 2zm132 0c0 1.1-.4 2-.8 2s-.8-.9-.8-2 .4-2 .8-2 .8.9.8 2zm-131.7 5c-.3 1.1-1 2-1.5 2-.6 0-.8-.6-.5-1.4.3-.8.1-1.7-.6-2-.7-.2-.2-.5 1-.5 1.6-.1 2 .3 1.6 1.9zm128-1.3c-.7.2-1.9.2-2.5 0-.7-.3-.2-.5 1.2-.5s1.9.2 1.3.5zm3.7 1.3c0 1.1-.4 2-.9 2-.6 0-.9-.9-.8-2 .1-1.1.5-2 .9-2s.8.9.8 2zm-3.5 1c.3.5-.1 1-.9 1-.9 0-1.6-.5-1.6-1 0-.6.4-1 .9-1 .6 0 1.3.4 1.6 1zm-142.2 2.7c-.7.2-1.9.2-2.5 0-.7-.3-.2-.5 1.2-.5s1.9.2 1.3.5zm.4 4.9c-.3.3-1.2.4-1.9.1-.8-.3-.5-.6.6-.6 1.1-.1 1.7.2 1.3.5zm-.7 2.4c0 .5-.4 1-1 1-.5 0-1-.5-1-1 0-.6.5-1 1-1 .6 0 1 .4 1 1zm1.3 2.7c-.7.2-1.9.2-2.5 0-.7-.3-.2-.5 1.2-.5s1.9.2 1.3.5zm20.4 4.9c-.3.3-1.2.4-1.9.1-.8-.3-.5-.6.6-.6 1.1-.1 1.7.2 1.3.5zm82 5c-.3.3-1.2.4-1.9.1-.8-.3-.5-.6.6-.6 1.1-.1 1.7.2 1.3.5zm-.9 2.1c-1 .2-2.6.2-3.5 0-1-.3-.2-.5 1.7-.5s2.7.2 1.8.5zm3.9 2.9c-.3.3-1.2.4-1.9.1-.8-.3-.5-.6.6-.6 1.1-.1 1.7.2 1.3.5zm-135 5.9c0 .8-.6 1.5-1.2 1.5s-1.2-.7-1.2-1.5.6-1.5 1.2-1.5 1.2.7 1.2 1.5zm68.6 3.2c-.7.2-2.1.2-3 0-1-.3-.4-.5 1.2-.5 1.7 0 2.4.2 1.8.5zM173 250c0 .5-.2 1-.4 1-.3 0-.8-.5-1.1-1-.3-.6-.1-1 .4-1 .6 0 1.1.4 1.1 1zm13.6 5c0 1.1-.6 2-1.2 2s-1.4-.9-1.7-2c-.4-1.4 0-2 1.2-2 1 0 1.7.8 1.7 2zM345 277.5c0 .8-.7 1.5-1.5 1.5-.9 0-1.2-.6-.9-1.5.4-.8 1-1.5 1.5-1.5s.9.7.9 1.5zm-26.3 3.2c-.9.2-1.5.9-1.2 1.4.4.5-.6.9-2 .9s-2.4-.4-2-.9c.3-.6-1.4-1.2-3.7-1.4-2.4-.2-.9-.4 3.2-.4 4.1 0 6.7.1 5.7.4zm26-.1c-.3.3-1.2.4-1.9.1-.8-.3-.5-.6.6-.6 1.1-.1 1.7.2 1.3.5zm.3 2.4c0 .5-.2 1-.4 1-.3 0-.8-.5-1.1-1-.3-.6-.1-1 .4-1 .6 0 1.1.4 1.1 1zm-84.7 36.7c-2.4.2-6.2.2-8.5 0-2.4-.2-.5-.4 4.2-.4s6.6.2 4.3.4zm13.5 0c-1.5.2-4.2.2-6 0-1.8-.2-.6-.4 2.7-.4 3.3 0 4.8.2 3.3.4zm9 0c-1 .2-2.6.2-3.5 0-1-.3-.2-.5 1.7-.5s2.7.2 1.8.5zm9 0c-1 .2-2.6.2-3.5 0-1-.3-.2-.5 1.7-.5s2.7.2 1.8.5zm-215.5 3c-.7.2-1.9.2-2.5 0-.7-.3-.2-.5 1.2-.5s1.9.2 1.3.5zm15.4-.1c-.3.3-1.2.4-1.9.1-.8-.3-.5-.6.6-.6 1.1-.1 1.7.2 1.3.5zm5.6.1c-.7.2-2.1.2-3 0-1-.3-.4-.5 1.2-.5 1.7 0 2.4.2 1.8.5zm181 0c-1.3.2-3.5.2-5 0-1.6-.2-.5-.4 2.2-.4 2.8 0 4 .2 2.8.4zm13 0c-.7.2-1.9.2-2.5 0-.7-.3-.2-.5 1.2-.5s1.9.2 1.3.5zm-14.5 7c-7.1.2-18.5.2-25.5 0-7.1-.1-1.3-.3 12.7-.3s19.8.2 12.8.3zm-.5 5c-6.8.2-17.8.2-24.5 0-6.8-.1-1.3-.3 12.2-.3s19 .2 12.3.3zm-24 5c-.7.2-1.9.2-2.5 0-.7-.3-.2-.5 1.2-.5s1.9.2 1.3.5zm23.5 0c-3.8.2-9.8.2-13.5 0-3.8-.2-.7-.3 6.7-.3s10.5.1 6.8.3zm-189 2c-1.6.2-4 .2-5.5 0-1.6-.2-.3-.4 2.7-.4s4.3.2 2.8.4zm174.5 0c-1.3.2-3.5.2-5 0-1.6-.2-.5-.4 2.2-.4 2.8 0 4 .2 2.8.4zm13 0c-1.8.2-4.8.2-6.5 0-1.8-.2-.4-.4 3.2-.4s5 .2 3.3.4zm-190.5 3c-1.5.2-4.2.2-6 0-1.8-.2-.6-.4 2.7-.4 3.3 0 4.8.2 3.3.4zm187.5 0c-.7.2-2.1.2-3 0-1-.3-.4-.5 1.2-.5 1.7 0 2.4.2 1.8.5zm68.5 7c-1 .2-2.6.2-3.5 0-1-.3-.2-.5 1.7-.5s2.7.2 1.8.5zm-10.5 5c-1.3.2-3.3.2-4.5 0-1.3-.2-.3-.4 2.2-.4s3.5.2 2.3.4zm87.4 4.9c-.3.3-1.2.4-1.9.1-.8-.3-.5-.6.6-.6 1.1-.1 1.7.2 1.3.5zM71.3 434.7c-.7.2-1.9.2-2.5 0-.7-.3-.2-.5 1.2-.5s1.9.2 1.3.5zm293.6 25c.2.2-.3.3-1.2.3-.9 0-2.2-1-2.8-2.3l-1.2-2.2 2.4 2c1.3 1.1 2.6 2.1 2.8 2.2zm7.8-3.1c-.3.3-1.2.4-1.9.1-.8-.3-.5-.6.6-.6 1.1-.1 1.7.2 1.3.5zm.3 2.4c0 .5-.5 1-1.1 1-.5 0-.7-.5-.4-1 .3-.6.8-1 1.1-1 .2 0 .4.4.4 1zm-76.3.6c-.3.3-1.2.4-1.9.1-.8-.3-.5-.6.6-.6 1.1-.1 1.7.2 1.3.5zm11.6.1c-1.8.2-4.8.2-6.5 0-1.8-.2-.4-.4 3.2-.4s5 .2 3.3.4zm34 0c-.7.2-1.9.2-2.5 0-.7-.3-.2-.5 1.2-.5s1.9.2 1.3.5zm16 0c-.7.2-1.9.2-2.5 0-.7-.3-.2-.5 1.2-.5s1.9.2 1.3.5zM272 462c-5.5.6-5.8.7-2.1.8 7.3.3 4.3.9-7.4 1.6-8.1.4-10.2.3-8-.5 5.6-1.9 11-2.7 17.5-2.6h6.5l-6.5.7zm28.8-.3c-2.7.2-6.9.2-9.5 0-2.7-.2-.5-.3 4.7-.3s7.4.1 4.8.3zm10.5 0c-.7.2-1.9.2-2.5 0-.7-.3-.2-.5 1.2-.5s1.9.2 1.3.5zm32 1.3c-.3 1.1-1.2 2-2 2-1.2 0-1.3-.3-.3-1.5s0-1.5-7.7-1.8l-8.8-.3 9.7-.2c9.2-.2 9.6-.1 9.1 1.8zm16-1.3c-.7.2-1.9.2-2.5 0-.7-.3-.2-.5 1.2-.5s1.9.2 1.3.5zm7.4-.1c-.3.3-1.2.4-1.9.1-.8-.3-.5-.6.6-.6 1.1-.1 1.7.2 1.3.5zm7 0c-.3.3-1.2.4-1.9.1-.8-.3-.5-.6.6-.6 1.1-.1 1.7.2 1.3.5zM236 464c0 .5-.7 1-1.5 1s-1.5-.5-1.5-1c0-.6.7-1 1.5-1s1.5.4 1.5 1zm42.5 0c.3.5-.3 1-1.5 1s-1.8-.5-1.5-1c.3-.6 1-1 1.5-1s1.2.4 1.5 1zm15.8-.3c-1.3.2-3.3.2-4.5 0-1.3-.2-.3-.4 2.2-.4s3.5.2 2.3.4zm17.7.3c0 .5-.7 1-1.5 1s-1.5-.5-1.5-1c0-.6.7-1 1.5-1s1.5.4 1.5 1zm18.8-.3c-1 .2-2.6.2-3.5 0-1-.3-.2-.5 1.7-.5s2.7.2 1.8.5zm32.2.3c1.3.9 1.3 1 0 1-.8 0-2.2-.5-3-1-1.3-.9-1.3-1 0-1 .8 0 2.2.5 3 1zm11 0c0 .5-.4 1-1 1-.5 0-1-.5-1-1 0-.6.5-1 1-1 .6 0 1 .4 1 1zm-137.3 2.6c-.3.3-1.2.4-1.9.1-.8-.3-.5-.6.6-.6 1.1-.1 1.7.2 1.3.5zm42.6.1c-.7.2-1.9.2-2.5 0-.7-.3-.2-.5 1.2-.5s1.9.2 1.3.5zm32.4-.1c-.3.3-1.2.4-1.9.1-.8-.3-.5-.6.6-.6 1.1-.1 1.7.2 1.3.5zm26 0c-.3.3-1.2.4-1.9.1-.8-.3-.5-.6.6-.6 1.1-.1 1.7.2 1.3.5zm5 0c-.3.3-1.2.4-1.9.1-.8-.3-.5-.6.6-.6 1.1-.1 1.7.2 1.3.5zm31 0c-.3.3-1.2.4-1.9.1-.8-.3-.5-.6.6-.6 1.1-.1 1.7.2 1.3.5zM244 469.2c-1.9.5-3.9 1.4-4.4 1.9-.6.5-6 .8-12 .8-7.9-.1-9.9-.4-7.1-.9 2.2-.4 3.6-.9 3-1-1.5-.5 10.2-1.7 17.5-1.7 5.9-.1 6.2 0 3 .9zm35.5-.2c-.3.5-1.3 1-2.1 1s-1.2-.5-.9-1c.3-.6 1.3-1 2.1-1s1.2.4.9 1zm32.2 1c-.1 1.3-.8 2-2.2 1.9-1.1 0-1.5-.3-.8-.5.7-.3.9-1.2.6-2-.3-.8.1-1.4 1-1.4 1 0 1.5.8 1.4 2zm28.4-.9c-1.4.6-2.8.6-3.3.1s.5-.9 2.4-1c3.1 0 3.1.1.9.9zm33.4-.1c-.3.5-1.3 1-2.1 1s-1.2-.5-.9-1c.3-.6 1.3-1 2.1-1s1.2.4.9 1zm-94.7 2.7c-1 .2-2.6.2-3.5 0-1-.3-.2-.5 1.7-.5s2.7.2 1.8.5zm60.9-.1c-.3.3-1.2.4-1.9.1-.8-.3-.5-.6.6-.6 1.1-.1 1.7.2 1.3.5zm32.6.1c-.7.2-2.1.2-3 0-1-.3-.4-.5 1.2-.5 1.7 0 2.4.2 1.8.5zm-132 3.3c.3 1.3 0 2-.9 2-.8 0-1.4-.5-1.4-1.2 0-.9-.3-.9-1.2 0-1.9 1.9-3.7 1.4-3.1-.8.4-1.4 1.4-2 3.3-2s2.9.6 3.3 2zm37.4-.9c-.9.6-1.5 1.4-1.2 2 .4.5-.3.9-1.3.9-1.5 0-1.9-.5-1.5-2 .4-1.4 1.4-2 3.2-2 2.3.1 2.4.2.8 1.1zm33.4-.2c-.7.5-1 1.4-.7 2 .5.7-.3 1.1-2.1 1-1.5 0-2.2-.3-1.5-.6.6-.2 1.2-1.1 1.2-1.9 0-.8 1-1.4 2.3-1.4 1.6 0 1.8.3.8.9zm28.9-.5c0 .2-.3 1.1-.6 2-.9 2.4-3.3 2-2.7-.4.4-1.6 3.3-3 3.3-1.6zm30.3.3c-.7.2-1.9.2-2.5 0-.7-.3-.2-.5 1.2-.5s1.9.2 1.3.5zm-135.1 5.2c-.8.4-1.2 1.2-1 1.7.1.5-.8 1-2.2 1.1-1.4.1-1.9 0-1.2-.3.6-.3 1.2-1.2 1.2-2s1-1.4 2.3-1.4c1.6 0 1.8.3.9.9zm6.8.5c0 .8.6 1.7 1.3 1.9.6.3.2.6-.9.6-1.4.1-2.4-.7-2.7-1.9-.3-1.3 0-2 .9-2 .8 0 1.4.6 1.4 1.4zm33.2-.5c-.8.4-1.2 1.2-1 1.7.1.5-.8 1-2.2 1.1-1.4.1-1.9 0-1.2-.3.6-.3 1.2-1.2 1.2-2s1-1.4 2.3-1.4c1.6 0 1.8.3.9.9zm33.1 1.1c-1 1.1-2.5 2-3.5 2-1.7 0-1.7-.1-.1-2 1-1.1 2.5-2 3.5-2 1.7 0 1.7.1.1 2zm30-1.3c-.7.2-1.9.2-2.5 0-.7-.3-.2-.5 1.2-.5s1.9.2 1.3.5zM54 480.5c0 .8-.4 1.5-1 1.5-.5 0-.7-.7-.4-1.5.4-.8.8-1.5 1-1.5.2 0 .4.7.4 1.5zm.7 3.1c-.3.3-1.2.4-1.9.1-.8-.3-.5-.6.6-.6 1.1-.1 1.7.2 1.3.5zm177.5.3c-.8.4-1.2 1.2-1 1.7.1.5-.7 1-2 1.2-2.1.3-2.2.2-1-1.7.7-1.2 2.2-2.1 3.3-2.1 1.5 0 1.7.3.7.9zm12.6 1.1c1.1 1.8 1 2-.9 2-1.4 0-1.9-.5-1.6-1.4.3-.8.1-1.7-.6-2-.8-.3-.6-.5.3-.5.8-.1 2.1.8 2.8 1.9zm26.7-1c-1.3.6-1.5.9-.5.9 2.3.2-1 2.1-3.5 2.1-1.9-.1-1.9-.2-.3-1.4 1-.7 1.5-1.6 1.1-1.9-.3-.4.7-.7 2.3-.6 2.5 0 2.6.2.9.9zm33.8-.3c-.7.2-2.1.2-3 0-1-.3-.4-.5 1.2-.5 1.7 0 2.4.2 1.8.5zM53.5 486c-.3.5-1 1-1.6 1-.5 0-.9-.5-.9-1 0-.6.7-1 1.6-1 .8 0 1.2.4.9 1zm175.8 2.7c-.7.2-2.1.2-3 0-1-.3-.4-.5 1.2-.5 1.7 0 2.4.2 1.8.5zm16 0c-.7.2-1.9.2-2.5 0-.7-.3-.2-.5 1.2-.5s1.9.2 1.3.5zm210.4-.1c-.3.3-1.2.4-1.9.1-.8-.3-.5-.6.6-.6 1.1-.1 1.7.2 1.3.5zm-211.4 2.1c-1.3.2-3.5.2-5 0-1.6-.2-.5-.4 2.2-.4 2.8 0 4 .2 2.8.4zm194.2 5.3c.7 1.2-.2 1.2-3 0-1.9-.8-1.9-.9.2-.9 1.2-.1 2.5.3 2.8.9z"/><path d="M320.3 39.7c.4.3.2 1.2-.4 2-.6.7-.8 1.3-.3 1.3s.2.5-.6 1c-1.3.9-1.3 1 0 1.1.8 0 2.8.2 4.3.3 1.5.1 3.3-.2 4-.6.8-.5.7-.8-.5-.8-1.6 0-2.3-1.7-1.9-4.3 0-.4-1.1-.7-2.6-.7-1.4 0-2.3.3-2 .7zM302.5 147l-8 .6 9.3.2c6 .1 9.1-.2 8.7-.8-.3-.6-.9-.9-1.3-.8-.4.1-4.3.5-8.7.8zM282 150.1c2.5 1 19.6.6 20.8-.5.3-.3-4.8-.6-11.4-.5-9 0-11.3.3-9.4 1zM313.3 149.6c.3.3 2.6.6 5.2.6s4.9-.3 5.3-.6c.3-.3-2.1-.6-5.3-.6-3.2 0-5.6.3-5.2.6zM281.8 152.7c1.2.2 3 .2 4 0 .9-.3-.1-.5-2.3-.4-2.2 0-3 .2-1.7.4zM290.8 152.7c1.2.2 3.2.2 4.5 0 1.2-.2.2-.4-2.3-.4s-3.5.2-2.2.4zM312.8 152.7c1.7.2 4.7.2 6.5 0 1.7-.2.3-.4-3.3-.4-3.6 0-5 .2-3.2.4zM309.8 154.7c1.8.2 4.5.2 6 0s0-.4-3.3-.4-4.5.2-2.7.4zM246 157.1c-1.7.5-.3.7 4.4.8 3.8.1 6.7-.2 6.3-.5-.9-1-7.9-1.2-10.7-.3zM321 157c-2 .6-1.5.8 2.5.9 3.6 0 4.6-.2 3.5-.9-1.7-1.1-2.5-1.1-6 0zM249.8 159.7c1.2.2 3.2.2 4.5 0 1.2-.2.2-.4-2.3-.4s-3.5.2-2.2.4zM306.7 176.7c1.8.2 5 .2 7 0 2.1-.2.7-.4-3.2-.4-3.8 0-5.5.2-3.8.4zM311.5 179c-.3.5.1 1 1 1s1.3-.5 1-1c-.3-.6-.8-1-1-1-.2 0-.7.4-1 1zM326.5 184c-.3.5.1 1 .9 1 .9 0 1.6-.5 1.6-1 0-.6-.4-1-.9-1-.6 0-1.3.4-1.6 1zM188 145c0 1.2 2.7 1.2 5.5 0 1.6-.7 1.3-.9-1.7-.9-2.1-.1-3.8.3-3.8.9zM190.8 157.7c.7.3 1.6.2 1.9-.1.4-.3-.2-.6-1.3-.5-1.1 0-1.4.3-.6.6zM186 167c0 .5.8 1 1.8 1 1.4 0 1.5.2.2 1-1.1.7-.1.9 3.5.8 2.9 0 3.8-.3 2.3-.5-2.9-.5-3.7-1.8-1.5-2.6.6-.3-.5-.6-2.5-.6-2.1-.1-3.8.3-3.8.9zM180.5 174c-.4.6.6 1 2.2 1 2.2 0 2.5-.2 1.3-1-1.9-1.2-2.7-1.2-3.5 0zM224 228c0 .5.5 1 1 1 .6 0 1-.5 1-1 0-.6-.4-1-1-1-.5 0-1 .4-1 1zM210.8 237.7c.7.3 1.6.2 1.9-.1.4-.3-.2-.6-1.3-.5-1.1 0-1.4.3-.6.6zM209.8 240.7c.6.2 1.8.2 2.5 0 .6-.3.1-.5-1.3-.5-1.4 0-1.9.2-1.2.5zM210.8 242.7c.7.3 1.6.2 1.9-.1.4-.3-.2-.6-1.3-.5-1.1 0-1.4.3-.6.6zM211.8 247.7c.7.3 1.6.2 1.9-.1.4-.3-.2-.6-1.3-.5-1.1 0-1.4.3-.6.6zM209 250c-1.1.7-.7 1 1.8 1 2 0 3.1-.4 2.7-1-.8-1.3-2.6-1.3-4.5 0zM213.8 252.7c.7.3 1.6.2 1.9-.1.4-.3-.2-.6-1.3-.5-1.1 0-1.4.3-.6.6zM219.8 252.7c1.8.2 4.5.2 6 0s0-.4-3.3-.4-4.5.2-2.7.4zM222.8 255.2c1.7.8 2.6.8 3.4 0 .9-.9.4-1.2-2.2-1.1-3.3 0-3.4.1-1.2 1.1zM220.3 257.7c1.5.2 3.9.2 5.5 0 1.5-.2.2-.4-2.8-.4s-4.3.2-2.7.4zM256.1 257.5c.7.7 33 .8 33.7.1.3-.3-7.3-.6-16.8-.6s-17.1.2-16.9.5zM186.4 261c0 1.1.6 2 1.3 2 .7 0 1-.6.7-1.4-.4-.9.3-1.6 1.8-1.9 1.9-.3 1.7-.5-.7-.6-2.5-.1-3.1.3-3.1 1.9zM223.8 259.7c1.2.2 3 .2 4 0 .9-.3-.1-.5-2.3-.4-2.2 0-3 .2-1.7.4zM261.5 260c.3.5 1.6 1 2.8 1 1.8 0 1.9.2.7 1-1 .7 1.1 1 6.8 1 5.3 0 8.1-.4 7.7-1-.3-.6.1-1 .9-1s1.8-.5 2.1-1c.4-.6-3.3-1-10.5-1s-10.9.4-10.5 1zM224.3 262.7c.9.2 2.3.2 3 0 .6-.3-.1-.5-1.8-.5-1.6 0-2.2.2-1.2.5zM191.4 266c0 1.1.6 2 1.3 2 .6 0 1.1-.9 1-2-.1-1.1-.6-2-1.2-2s-1.1.9-1.1 2zM224.3 264.7c.9.2 2.5.2 3.5 0 .9-.3.1-.5-1.8-.5-1.9 0-2.7.2-1.7.5zM225.8 267.7c.6.2 1.8.2 2.5 0 .6-.3.1-.5-1.3-.5-1.4 0-1.9.2-1.2.5zM187.8 269.7c.7.3 1.6.2 1.9-.1.4-.3-.2-.6-1.3-.5-1.1 0-1.4.3-.6.6zM226.3 269.7c.9.2 2.5.2 3.5 0 .9-.3.1-.5-1.8-.5-1.9 0-2.7.2-1.7.5zM193.7 273.7c-.3.3-.2 1.5.3 2.8.5 1.3.6 2.6.3 2.9-.4.3.1.6 1 .6 1.3 0 1.5-.5.7-2.4-.6-1.7-.5-2.6.2-2.8.7-.3.6-.7-.4-1-.9-.4-1.8-.4-2.1-.1zM227.3 274.7c.9.2 2.3.2 3 0 .6-.3-.1-.5-1.8-.5-1.6 0-2.2.2-1.2.5zM188.8 279.7c.7.3 1.6.2 1.9-.1.4-.3-.2-.6-1.3-.5-1.1 0-1.4.3-.6.6zM227.8 279.7c.7.3 1.6.2 1.9-.1.4-.3-.2-.6-1.3-.5-1.1 0-1.4.3-.6.6zM189 282.1c0 .5.5.7 1 .4.6-.3 1-.8 1-1.1 0-.2-.4-.4-1-.4-.5 0-1 .5-1 1.1zM194.4 283c0 1.1.3 2 .7 2 .4 0 .6 1.1.4 2.5-.1 1.5.3 2.5 1 2.5.8 0 1.1-1 .8-2.8-.3-1.5-.5-3.5-.6-4.5-.2-2.4-2.3-2.2-2.3.3zM228.8 284.7c.7.3 1.6.2 1.9-.1.4-.3-.2-.6-1.3-.5-1.1 0-1.4.3-.6.6zM229.8 286.7c.6.2 1.8.2 2.5 0 .6-.3.1-.5-1.3-.5-1.4 0-1.9.2-1.2.5zM230.8 289.7c.7.3 1.6.2 1.9-.1.4-.3-.2-.6-1.3-.5-1.1 0-1.4.3-.6.6zM230.8 291.7c.6.2 1.8.2 2.5 0 .6-.3.1-.5-1.3-.5-1.4 0-1.9.2-1.2.5zM195.5 294c-.3.5.1 1 .9 1 .9 0 1.6-.5 1.6-1 0-.6-.4-1-.9-1-.6 0-1.3.4-1.6 1zM231.8 296.7c.6.2 1.8.2 2.5 0 .6-.3.1-.5-1.3-.5-1.4 0-1.9.2-1.2.5zM195 299c0 .5.4 1 .9 1 .6 0 1.3-.5 1.6-1 .3-.6-.1-1-.9-1-.9 0-1.6.4-1.6 1zM193.8 303.7c.6.2 1.8.2 2.5 0 .6-.3.1-.5-1.3-.5-1.4 0-1.9.2-1.2.5zM190.8 308.7c1.2.2 3.2.2 4.5 0 1.2-.2.2-.4-2.3-.4s-3.5.2-2.2.4zM229.8 333.7c.7.3 1.6.2 1.9-.1.4-.3-.2-.6-1.3-.5-1.1 0-1.4.3-.6.6zM183.8 345.7c.7.3 1.6.2 1.9-.1.4-.3-.2-.6-1.3-.5-1.1 0-1.4.3-.6.6zM227.8 470.7c.7.3 1.6.2 1.9-.1.4-.3-.2-.6-1.3-.5-1.1 0-1.4.3-.6.6zM110.8 306.7c.7.3 1.6.2 1.9-.1.4-.3-.2-.6-1.3-.5-1.1 0-1.4.3-.6.6zM444.4 360.2c-.3.4 1.3.8 3.5.8 2.3 0 4.1-.2 4.1-.4 0-.8-7.1-1.2-7.6-.4zM424.3 369.7c.9.2 2.5.2 3.5 0 .9-.3.1-.5-1.8-.5-1.9 0-2.7.2-1.7.5zM421.8 372.7c1.7.2 4.7.2 6.5 0 1.7-.2.3-.4-3.3-.4-3.6 0-5 .2-3.2.4zM428.3 374.7c.9.2 2.5.2 3.5 0 .9-.3.1-.5-1.8-.5-1.9 0-2.7.2-1.7.5zM430.8 377.7c1.2.2 3 .2 4 0 .9-.3-.1-.5-2.3-.4-2.2 0-3 .2-1.7.4zM455.3 389.7c.9.2 2.3.2 3 0 .6-.3-.1-.5-1.8-.5-1.6 0-2.2.2-1.2.5zM461.3 411.7c.9.2 2.3.2 3 0 .6-.3-.1-.5-1.8-.5-1.6 0-2.2.2-1.2.5zM463.3 416.7c.9.2 2.3.2 3 0 .6-.3-.1-.5-1.8-.5-1.6 0-2.2.2-1.2.5zM463.3 421.7c.9.2 2.5.2 3.5 0 .9-.3.1-.5-1.8-.5-1.9 0-2.7.2-1.7.5zM461.8 435.7c1.8.2 4.5.2 6 0s0-.4-3.3-.4-4.5.2-2.7.4zM460 453c0 .5 1.1 1 2.5 1s2.5-.5 2.5-1c0-.6-1.1-1-2.5-1s-2.5.4-2.5 1z"/></svg>